<svg id="Outline_Expand" data-name="Outline Expand" xmlns="http://www.w3.org/2000/svg" viewBox="0 0 64 64"><title>AI house voice</title><path fill="currentColor" d="M16.59,41.45v16.4a4,4,0,0,0,4,4h2A1,1,0,0,0,23,62H40.65a1,1,0,0,0,.51-.16h2a4,4,0,0,0,4-4V41.46h.14a4,4,0,0,0,2.33-7.36L36,24.57a7.13,7.13,0,0,0-8.19,0L14.4,34.13a4.05,4.05,0,0,0-1,5.64A4,4,0,0,0,16.59,41.45ZM39.65,59.84H24V46.39a2,2,0,0,1,2-2H37.65a2,2,0,0,1,2,2Zm5.46-2a2,2,0,0,1-2,2H41.65V46.39a4,4,0,0,0-4-4H26a4,4,0,0,0-4,4V59.84H20.58a2,2,0,0,1-2-2V41a3.3,3.3,0,0,0,.51-.29L31.92,31.6l13,9.14.19.11ZM15.56,35.75,29,26.22a5.13,5.13,0,0,1,5.89,0l13.58,9.54a2,2,0,0,1,.84,1.32,2.07,2.07,0,0,1-.34,1.53,2.11,2.11,0,0,1-2.86.5L32.49,29.56a1,1,0,0,0-.57-.18,1,1,0,0,0-.58.18l-13.4,9.53a2.05,2.05,0,0,1-2.38-3.34ZM26.2,13.84a3.23,3.23,0,0,0-.31,4.56,3.23,3.23,0,0,0,4.55.31,2.41,2.41,0,0,1,3.06,0A3.23,3.23,0,0,0,37.86,14,8.88,8.88,0,0,0,26.2,13.84ZM36.59,17.2a1.27,1.27,0,0,1-1.74.07,4.35,4.35,0,0,0-2.91-1.09,4.29,4.29,0,0,0-2.81,1,1.23,1.23,0,0,1-1.74-.12,1.22,1.22,0,0,1,.12-1.73,6.84,6.84,0,0,1,9,.11A1.24,1.24,0,0,1,36.59,17.2ZM21.1,12.83h0a3.19,3.19,0,0,0,2.25-.92,12.09,12.09,0,0,1,8.49-3.45H32a12,12,0,0,1,8.53,3.66,3.18,3.18,0,0,0,2.31,1,3.22,3.22,0,0,0,2.31-5.48A18.42,18.42,0,0,0,32.1,2h-.25a18.48,18.48,0,0,0-13,5.28,3.24,3.24,0,0,0-.05,4.57A3.2,3.2,0,0,0,21.1,12.83Zm-.82-4.11A16.57,16.57,0,0,1,43.74,9a1.23,1.23,0,0,1,0,1.74,1.27,1.27,0,0,1-1.74,0A14,14,0,0,0,32,6.46h-.16a14,14,0,0,0-9.88,4,1.4,1.4,0,0,1-.88.35,1.24,1.24,0,0,1-.84-2.11Z"/></svg>