<svg id="Outline_Expand" data-name="Outline Expand" xmlns="http://www.w3.org/2000/svg" viewBox="0 0 64 64"><title>Smartphone AI voice</title><path fill="currentColor" d="M57,18.84H46.41c0-.26.05-.52.05-.79a14.46,14.46,0,0,0-28.92,0c0,.27,0,.53.05.79H7a5,5,0,0,0-5,5V55.4a5,5,0,0,0,5,5H57a5,5,0,0,0,5-5V23.84A5,5,0,0,0,57,18.84ZM7,58.4a3,3,0,0,1-3-3V23.84a3,3,0,0,1,3-3h3.29L10.4,58.4ZM32,5.6a12.45,12.45,0,0,1,1,24.86l0-3.08a9.24,9.24,0,0,0,8.24-9.18V17a1,1,0,0,0-2,0V18.2A7.25,7.25,0,0,1,32,25.44H32a7.25,7.25,0,0,1-7.21-7.24V17a1,1,0,0,0-2,0V18.2A9.25,9.25,0,0,0,31,27.38l0,3.08A12.45,12.45,0,0,1,32,5.6ZM60,46.46a4.08,4.08,0,0,1-3.45-4V36.81a4.08,4.08,0,0,1,3.45-4Zm0-15.69a6.08,6.08,0,0,0-5.45,6v5.62a6.07,6.07,0,0,0,5.45,6V55.4a3,3,0,0,1-3,3H12.4l-.11-37.56h5.53a14.45,14.45,0,0,0,28.36,0H57a3,3,0,0,1,3,3ZM32,23.19a5.39,5.39,0,0,0,5.39-5.39V14.12a5.39,5.39,0,0,0-10.78,0V17.8A5.39,5.39,0,0,0,32,23.19Zm-3.39-9.07a3.39,3.39,0,0,1,6.78,0V17.8a3.39,3.39,0,0,1-6.78,0Zm-9.07,25.5V51.74a1,1,0,0,1-2,0V39.62a1,1,0,0,1,2,0ZM26.8,42.8v6.32a1,1,0,0,1-2,0V42.8a1,1,0,0,1,2,0Zm7.25-5.31V54.43a1,1,0,0,1-2,0V37.49a1,1,0,1,1,2,0Zm7.26,5.31v6.32a1,1,0,1,1-2,0V42.8a1,1,0,0,1,2,0Zm7.25-3.18V52.3a1,1,0,0,1-2,0V39.62a1,1,0,0,1,2,0Z"/></svg>