<svg id="Outline_Expand" data-name="Outline Expand" xmlns="http://www.w3.org/2000/svg" viewBox="0 0 64 64"><title>Smart AI voice</title><path fill="currentColor" d="M39.88,2H16.22a5,5,0,0,0-5,5V57a5,5,0,0,0,5,5H47.78a5,5,0,0,0,5-5V7a5,5,0,0,0-5-5ZM38.83,4a4.08,4.08,0,0,1-4,3.45H29.19a4.08,4.08,0,0,1-4-3.45Zm12,53a3,3,0,0,1-3,3H16.22a3,3,0,0,1-3-3V53.71l22.07-.06h.08l15.41,0ZM30.88,40.86h2.24a6.79,6.79,0,0,0,6.79-6.78V31.65h.88a1.91,1.91,0,0,1,1.9,1.9A10.7,10.7,0,0,1,32,44.23,10.74,10.74,0,0,1,21.31,33.55a1.91,1.91,0,0,1,1.9-1.9h.88v2.43A6.79,6.79,0,0,0,30.88,40.86ZM28.31,30.52H26.09V28h2.22a1,1,0,0,0,0-2H26.09V23.5h2.22a1,1,0,1,0,0-2H26.09v-.92a4.8,4.8,0,0,1,4.79-4.79h2.24a4.8,4.8,0,0,1,4.79,4.79v.92H35.69a1,1,0,0,0,0,2h2.22V26H35.69a1,1,0,0,0,0,2h2.22v2.51H35.69a1,1,0,1,0,0,2h2.22v1.56a4.79,4.79,0,0,1-4.79,4.78H30.88a4.79,4.79,0,0,1-4.79-4.78V32.52h2.22a1,1,0,0,0,0-2ZM29.67,46a12.45,12.45,0,0,0,4.66,0v5.64H29.67ZM50.78,7V51.6l-14.45,0V45.45a12.68,12.68,0,0,0,8.36-11.9,3.91,3.91,0,0,0-3.9-3.9h-.88V20.58a6.8,6.8,0,0,0-6.79-6.79H30.88a6.8,6.8,0,0,0-6.79,6.79v9.07h-.88a3.89,3.89,0,0,0-3.9,3.9,12.56,12.56,0,0,0,3.73,9,12.72,12.72,0,0,0,4.63,2.94v6.22l-14.45,0V7a3,3,0,0,1,3-3h6.93a6.07,6.07,0,0,0,6,5.45h5.62a6.07,6.07,0,0,0,6-5.45h6.93A3,3,0,0,1,50.78,7Z"/></svg>