<svg id="Outline_Expand" data-name="Outline Expand" xmlns="http://www.w3.org/2000/svg" viewBox="0 0 64 64"><title>AI voice record_3</title><path fill="currentColor" d="M45.74,27.66H43.83V14.78a11.71,11.71,0,0,0-23.42,0V27.66H18.5a5.5,5.5,0,0,0-5.5,5.5,18.94,18.94,0,0,0,5.62,13.5,19.23,19.23,0,0,0,8.24,4.86v7.41H22.05a1,1,0,0,0,0,2H42.19a1,1,0,0,0,0-2H37.38V51.51A19.13,19.13,0,0,0,51.24,33.16,5.51,5.51,0,0,0,45.74,27.66ZM22.41,14.78a9.71,9.71,0,0,1,19.42,0v16.7H22.41Zm0,18.7H41.83v2.07a6.4,6.4,0,0,1-6.39,6.39H28.8a6.4,6.4,0,0,1-6.39-6.39Zm13,25.45H28.86V52a19.66,19.66,0,0,0,3.26.29,18.47,18.47,0,0,0,3.26-.3Zm-3.26-8.67A17.17,17.17,0,0,1,15,33.16a3.48,3.48,0,0,1,1-2.48,3.52,3.52,0,0,1,2.48-1h1.91v5.89a8.39,8.39,0,0,0,8.39,8.39h6.64a8.39,8.39,0,0,0,8.39-8.39V29.66h1.91a3.5,3.5,0,0,1,3.5,3.5A17.13,17.13,0,0,1,32.12,50.26ZM35.62,16a1,1,0,0,1-1,1h-5a1,1,0,0,1,0-2h5A1,1,0,0,1,35.62,16Zm0,7a1,1,0,0,1-1,1h-5a1,1,0,0,1,0-2h5A1,1,0,0,1,35.62,23ZM4,9.67v8.44a1,1,0,0,1-2,0V9.67a1,1,0,0,1,2,0Zm5.89-3V21.16a1,1,0,1,1-2,0V6.62a1,1,0,0,1,2,0Zm4.88,12.49a1,1,0,0,1-1-1V9.67a1,1,0,1,1,2,0v8.44A1,1,0,0,1,14.77,19.11ZM62,9.67v8.44a1,1,0,0,1-2,0V9.67a1,1,0,0,1,2,0Zm-5.89-3V21.16a1,1,0,0,1-2,0V6.62a1,1,0,1,1,2,0ZM49.23,19.11a1,1,0,0,1-1-1V9.67a1,1,0,0,1,2,0v8.44A1,1,0,0,1,49.23,19.11Z"/></svg>