<svg id="Outline_Expand" data-name="Outline Expand" xmlns="http://www.w3.org/2000/svg" viewBox="0 0 64 64"><title>AI voice</title><path fill="currentColor" d="M15.39,35.18c1.68.31,2.27.79,2.47,1.06.39.5.18,1.6,0,2.77-.34,1.8-.76,4.05.63,6,2,2.76,8.31,2.6,11,2.4l.11,4.53a4.94,4.94,0,0,0,4.91,4.81h8.82a4.92,4.92,0,0,0,4.91-4.91V45.61a3.17,3.17,0,0,1,1.14-2.44c2.92-2.41,9.86-8.79,11.21-15.74.94-4.78,1.75-16.55-10.81-22.7a23.36,23.36,0,0,0-19.25-.88c-5,2.08-11.24,6.78-13,17.4L12.86,30a3.55,3.55,0,0,0,2.53,5.14ZM14.63,31,19.33,22a1.12,1.12,0,0,0,.1-.31c1.24-7.89,5.21-13.29,11.79-16a21.38,21.38,0,0,1,17.6.82C59.73,11.87,59.6,21.67,58.55,27,57.32,33.37,50.78,39.35,48,41.63a5.15,5.15,0,0,0-1.87,4v6.23a2.91,2.91,0,0,1-2.91,2.91H34.43a2.94,2.94,0,0,1-2.92-2.85l-.1-4.79a37.92,37.92,0,0,0,6.87-2.59,1,1,0,0,0-.86-1.8,32.28,32.28,0,0,1-7.18,2.6c-3.26.38-8.87.31-10.15-1.47-.9-1.26-.59-2.9-.3-4.48s.59-3.15-.35-4.36a5.78,5.78,0,0,0-3.69-1.79,1.58,1.58,0,0,1-1.14-.86A1.5,1.5,0,0,1,14.63,31Zm30.82-3.09.06-10a1,1,0,0,1,1-1h0a1,1,0,0,1,1,1l-.06,10a1,1,0,0,1-1,1h0A1,1,0,0,1,45.45,27.89Zm-12.89,1a1,1,0,0,0,1.25-.66l1.23-4h4.87l1.24,4a1,1,0,0,0,1,.71,1,1,0,0,0,.3,0,1,1,0,0,0,.66-1.25l-2.64-8.53a3.08,3.08,0,0,0-5.89,0L31.9,27.6A1,1,0,0,0,32.56,28.85Zm3.89-9.19a1.08,1.08,0,0,1,2.06,0l.79,2.54H35.66Zm3.3,18.27a15,15,0,1,0-15-15A15,15,0,0,0,39.75,37.93Zm0-28a13,13,0,1,1-13,13A13,13,0,0,1,39.75,9.92ZM10.38,40a1,1,0,1,1,1.82.82,3,3,0,0,0,1.14,3.66,1,1,0,0,1-.51,1.86,1.07,1.07,0,0,1-.52-.14A5,5,0,0,1,10.38,40ZM3.54,45.08a11.69,11.69,0,0,1,.81-9A1,1,0,1,1,6.12,37a9.81,9.81,0,0,0,4.12,13.22,1,1,0,0,1-.47,1.88A1.11,1.11,0,0,1,9.31,52,11.71,11.71,0,0,1,3.54,45.08Z"/></svg>