<svg id="Outline_Expand" data-name="Outline Expand" xmlns="http://www.w3.org/2000/svg" viewBox="0 0 64 64"><title>AI voice_3</title><path fill="currentColor" d="M26.88,38l.06-12a1,1,0,0,1,1-1h0a1,1,0,0,1,1,1l-.06,12a1,1,0,0,1-1,1h0A1,1,0,0,1,26.88,38Zm-16.3-.29,3.17-10.25a3.5,3.5,0,0,1,6.69,0l3.17,10.25A1,1,0,0,1,23,38.93a1,1,0,0,1-.3,0,1,1,0,0,1-.95-.7l-1.53-4.94H14l-1.53,4.94a1,1,0,1,1-1.91-.59Zm4.06-6.35h4.91l-1-3.31a1.5,1.5,0,0,0-2.87,0ZM2,32A17.82,17.82,0,1,1,19.82,49.82,17.84,17.84,0,0,1,2,32Zm2,0A15.82,15.82,0,1,0,19.82,16.18,15.84,15.84,0,0,0,4,32Zm38.05-5a3.4,3.4,0,0,1,1.12-2.38,3.42,3.42,0,0,1,4.84.23,10.88,10.88,0,0,1,.15,14.31,3.4,3.4,0,0,1-2.58,1.17,3.42,3.42,0,0,1-3.43-3.2A3.42,3.42,0,0,1,43,34.62a4.1,4.1,0,0,0-.05-5.18A3.42,3.42,0,0,1,42.05,27Zm2,.09a1.4,1.4,0,0,0,.37,1,6.12,6.12,0,0,1,.08,7.84,1.42,1.42,0,0,0-.35,1,1.39,1.39,0,0,0,.49,1,1.46,1.46,0,0,0,2-.14,8.84,8.84,0,0,0-.12-11.65,1.36,1.36,0,0,0-1-.46h-.06a1.45,1.45,0,0,0-1,.37A1.4,1.4,0,0,0,44.05,27.06Zm6-7a3.44,3.44,0,0,1,0-4.85,3.39,3.39,0,0,1,2.42-1h0a3.43,3.43,0,0,1,2.4,1,23.81,23.81,0,0,1,.35,33.63,3.38,3.38,0,0,1-2.45,1A3.43,3.43,0,0,1,50.31,44,17,17,0,0,0,50.07,20.06Zm1.67,25.33a1.43,1.43,0,0,0,2,2,21.81,21.81,0,0,0-.32-30.8,1.39,1.39,0,0,0-1-.41h0a1.38,1.38,0,0,0-1,.43,1.43,1.43,0,0,0,0,2A19,19,0,0,1,51.74,45.39Z"/></svg>