<svg id="Outline_Expand" data-name="Outline Expand" xmlns="http://www.w3.org/2000/svg" viewBox="0 0 64 64"><title>AI voice sign</title><path fill="currentColor" d="M32,2A30,30,0,1,0,62,32,30,30,0,0,0,32,2Zm0,58A28,28,0,1,1,60,32,28,28,0,0,1,32,60ZM32,7.75A24.25,24.25,0,1,0,56.25,32,24.28,24.28,0,0,0,32,7.75ZM35.58,54a22.24,22.24,0,0,1-7.16,0V49.22a14.47,14.47,0,0,0,7.16,0ZM29.05,42.19h5.89a5.54,5.54,0,0,0,5.54-5.54V32.91a2.54,2.54,0,0,1,2-.9A2.61,2.61,0,0,1,45,34.63a13,13,0,1,1-26.08,0A2.61,2.61,0,0,1,21.57,32a2.54,2.54,0,0,1,1.94.89v3.75A5.55,5.55,0,0,0,29.05,42.19Zm-.43-11H25.51V25.64h3.11a1,1,0,1,0,0-2H25.53a6.48,6.48,0,0,1,12.93,0H35a1,1,0,0,0,0,2h3.5v5.59H35a1,1,0,0,0,0,2h3.5v3.42a3.54,3.54,0,0,1-3.54,3.54H29.05a3.55,3.55,0,0,1-3.54-3.54V33.23h3.11a1,1,0,0,0,0-2Zm9,22.31V48.83a.86.86,0,0,0,0-.23,15.06,15.06,0,0,0,9.51-14,4.6,4.6,0,0,0-6.56-4.18V24a8.49,8.49,0,1,0-17,0v6.41A4.59,4.59,0,0,0,17,34.63a15.06,15.06,0,0,0,9.51,14,.86.86,0,0,0,0,.23v4.71a22.25,22.25,0,1,1,11.16,0Z"/></svg>