<svg id="Outline_Expand" data-name="Outline Expand" xmlns="http://www.w3.org/2000/svg" viewBox="0 0 64 64"><title>AI voice setting_1</title><path fill="currentColor" d="M32,26A13.56,13.56,0,1,0,45.55,39.58,13.57,13.57,0,0,0,32,26Zm0,25.11A11.56,11.56,0,1,1,43.55,39.58,11.56,11.56,0,0,1,32,51.14ZM51.65,36.51a4.4,4.4,0,0,0,1.62-6l-2.76-4.78a4.43,4.43,0,0,0-6.1-1.56,2.35,2.35,0,0,1-2.44,0q-.75-.48-1.56-.9a2.36,2.36,0,0,1-1.25-2.1V21a4.41,4.41,0,0,0-4.4-4.41H29.24A4.41,4.41,0,0,0,24.84,21v.1a2.36,2.36,0,0,1-1.25,2.1q-.81.42-1.56.9a2.39,2.39,0,0,1-2.52,0,4.42,4.42,0,0,0-6,1.61l-2.76,4.78a4.41,4.41,0,0,0,1.69,6.06,2.45,2.45,0,0,1,1.2,2.28c0,.25,0,.5,0,.75s0,.51,0,.76a2.49,2.49,0,0,1-1.27,2.32,4.4,4.4,0,0,0-1.62,6l2.76,4.77A4.4,4.4,0,0,0,19.59,55,2.37,2.37,0,0,1,22,55q.75.48,1.56.9A2.35,2.35,0,0,1,24.84,58v.1a4.41,4.41,0,0,0,4.4,4.41h5.52a4.41,4.41,0,0,0,4.4-4.41V58a2.35,2.35,0,0,1,1.25-2.1q.81-.42,1.56-.9a2.39,2.39,0,0,1,2.52,0,4.4,4.4,0,0,0,6-1.62l2.76-4.77a4.41,4.41,0,0,0-1.69-6.06,2.46,2.46,0,0,1-1.2-2.28c0-.25,0-.5,0-.76s0-.5,0-.75A2.48,2.48,0,0,1,51.65,36.51Zm-1.07-1.69a4.45,4.45,0,0,0-2.2,4.1c0,.22,0,.44,0,.66s0,.45,0,.67a4.48,4.48,0,0,0,2.27,4.14,2.41,2.41,0,0,1,.88,3.29l-2.75,4.77a2.4,2.4,0,0,1-1.46,1.13,2.48,2.48,0,0,1-1.91-.29,4.32,4.32,0,0,0-4.52.07c-.44.28-.91.55-1.39.8A4.32,4.32,0,0,0,37.16,58v.1a2.41,2.41,0,0,1-2.4,2.41H29.24a2.41,2.41,0,0,1-2.4-2.41V58a4.32,4.32,0,0,0-2.34-3.88c-.48-.25-.95-.52-1.39-.8a4.21,4.21,0,0,0-2.27-.67,4.63,4.63,0,0,0-2.33.64,2.39,2.39,0,0,1-3.29-.88l-2.75-4.77a2.35,2.35,0,0,1-.24-1.83,2.4,2.4,0,0,1,1.19-1.5,4.46,4.46,0,0,0,2.2-4.11c0-.21,0-.43,0-.66s0-.44,0-.66a4.48,4.48,0,0,0-2.27-4.14,2.37,2.37,0,0,1-1.12-1.47,2.33,2.33,0,0,1,.24-1.82l2.75-4.78a2.41,2.41,0,0,1,3.37-.83,4.32,4.32,0,0,0,4.52-.07c.44-.28.91-.55,1.39-.8a4.32,4.32,0,0,0,2.34-3.88V21a2.41,2.41,0,0,1,2.4-2.41h5.52A2.41,2.41,0,0,1,37.16,21v.1A4.32,4.32,0,0,0,39.5,25c.48.25,1,.52,1.39.8a4.36,4.36,0,0,0,4.6,0,2.41,2.41,0,0,1,3.29.88l2.75,4.78a2.33,2.33,0,0,1,.24,1.82A2.42,2.42,0,0,1,50.58,34.82Zm-11.09-.69-.06,9.5a1,1,0,0,1-1,1h0a1,1,0,0,1-1-1l.06-9.49a1,1,0,0,1,1-1h0A1,1,0,0,1,39.49,34.13Zm-6.74,1.09a3,3,0,0,0-5.68,0l-2.51,8.1a1,1,0,1,0,1.91.6l1.16-3.76h4.55l1.17,3.76a1,1,0,0,0,.95.7,1,1,0,0,0,.3,0,1,1,0,0,0,.66-1.26Zm-4.5,2.94L29,35.82a1,1,0,0,1,1.86,0l.73,2.34Zm9.31-27.88a1,1,0,0,1,.07,1.41,1,1,0,0,1-.74.32,1,1,0,0,1-.67-.26,6.5,6.5,0,0,0-8.44-.09,1,1,0,0,1-1.32-1.51A8.55,8.55,0,0,1,37.56,10.28Zm8.15-1A19.41,19.41,0,0,0,18.28,9a1,1,0,0,1-1.4-1.43,21.42,21.42,0,0,1,30.26.34,1,1,0,0,1,0,1.41,1,1,0,0,1-1.42,0Z"/></svg>