<svg id="Outline_Expand" data-name="Outline Expand" xmlns="http://www.w3.org/2000/svg" viewBox="0 0 64 64"><title>AI voice_1</title><path fill="currentColor" d="M32,7.88A24.12,24.12,0,1,0,56.12,32,24.15,24.15,0,0,0,32,7.88Zm0,46.24A22.12,22.12,0,0,1,32,9.88l1,0a28.79,28.79,0,0,0-1.63,6L26.52,25a3.66,3.66,0,0,0,2.61,5.29c1.77.33,2.39.84,2.6,1.11.42.54.21,1.7,0,2.93-.35,1.87-.79,4.2.66,6.23,2,2.86,8.66,2.69,11.4,2.48l0,7.62A22,22,0,0,1,32,54.12Zm13.81-4.86,0-6.65a25.82,25.82,0,0,1,3.15-1.08,1,1,0,0,0-.54-1.93A23.67,23.67,0,0,0,44.47,41c-3.43.37-9.16.27-10.48-1.58-1-1.33-.63-3-.32-4.7s.61-3.27-.36-4.51a6,6,0,0,0-3.82-1.85,1.7,1.7,0,0,1-1.22-.92,1.64,1.64,0,0,1,0-1.48l4.9-9.31a1.12,1.12,0,0,0,.1-.31,26.57,26.57,0,0,1,1.77-6.25A22.11,22.11,0,0,1,45.81,49.26ZM32,2A30,30,0,1,0,62,32,30,30,0,0,0,32,2Zm0,58A28,28,0,1,1,60,32,28,28,0,0,1,32,60ZM18.07,35.42v3.46a1,1,0,0,1-2,0V35.42a1,1,0,0,1,2,0Zm4.66-2v8.46a1,1,0,0,1-2,0V33.42a1,1,0,0,1,2,0Zm4.66,2v3.46a1,1,0,1,1-2,0V35.42a1,1,0,0,1,2,0Z"/></svg>