<svg id="Outline_Expand" data-name="Outline Expand" xmlns="http://www.w3.org/2000/svg" viewBox="0 0 64 64"><title>AI voice note</title><path fill="currentColor" d="M13.87,29.66a11.44,11.44,0,0,0,6.2-1.82H56.9a4.8,4.8,0,0,0,4.79-4.79V13.14A4.8,4.8,0,0,0,56.9,8.35H20.07a11.56,11.56,0,1,0-6.2,21.31Zm43-19.31a2.79,2.79,0,0,1,2.79,2.79v9.91a2.79,2.79,0,0,1-2.79,2.79H22.43a11.5,11.5,0,0,0,0-15.49Zm-43-1.81A9.56,9.56,0,1,1,4.31,18.1,9.57,9.57,0,0,1,13.87,8.54ZM10.35,23.76a3,3,0,0,0,1.5.41,2.9,2.9,0,0,0,1.5-.41l5.32-3.06a3,3,0,0,0,0-5.2l-5.32-3.07A3,3,0,0,0,8.85,15v6.14A3,3,0,0,0,10.35,23.76Zm.5-8.73a1,1,0,0,1,.5-.87,1.08,1.08,0,0,1,.51-.14,1,1,0,0,1,.49.14l5.32,3.07a1,1,0,0,1,0,1.73L12.35,22a1,1,0,0,1-1.5-.86Zm18.59,4.46V16.71a1,1,0,0,1,2,0v2.78a1,1,0,0,1-2,0Zm5.74,2V14.68a1,1,0,0,1,2,0v6.84a1,1,0,1,1-2,0Zm5.74-2V16.71a1,1,0,0,1,2,0v2.78a1,1,0,0,1-2,0Zm5.74,2V14.68a1,1,0,0,1,2,0v6.84a1,1,0,0,1-2,0Zm5.74-2V16.71a1,1,0,0,1,2,0v2.78a1,1,0,1,1-2,0ZM7.1,55.65H43.93a11.57,11.57,0,1,0,0-19.49H7.1A4.8,4.8,0,0,0,2.31,41v9.91A4.8,4.8,0,0,0,7.1,55.65Zm43-19.31a9.56,9.56,0,1,1-9.56,9.56A9.57,9.57,0,0,1,50.13,36.34ZM4.31,41A2.79,2.79,0,0,1,7.1,38.16H41.57a11.5,11.5,0,0,0,0,15.49H7.1a2.79,2.79,0,0,1-2.79-2.79Zm41,7.55,5.32,3.07a3,3,0,0,0,4.5-2.6V42.83a3,3,0,0,0-4.5-2.6L45.33,43.3h0a3,3,0,0,0,0,5.2Zm1-3.46L51.65,42a1,1,0,0,1,1,0,1,1,0,0,1,.5.86V49a1,1,0,0,1-1.5.87l-5.32-3.07a1,1,0,0,1,0-1.73ZM32.56,47.29V44.51a1,1,0,1,1,2,0v2.78a1,1,0,0,1-2,0Zm-5.74,2V42.48a1,1,0,0,1,2,0v6.84a1,1,0,0,1-2,0Zm-5.74-2V44.52a1,1,0,1,1,2,0v2.77a1,1,0,1,1-2,0Zm-5.74,2V42.49a1,1,0,0,1,2,0v6.83a1,1,0,0,1-2,0Zm-5.74-2V44.52a1,1,0,0,1,2,0v2.77a1,1,0,0,1-2,0Z"/></svg>