<svg id="Outline_Expand" data-name="Outline Expand" xmlns="http://www.w3.org/2000/svg" viewBox="0 0 64 64"><title>AI voice record</title><path fill="currentColor" d="M5.24,26.62a3.25,3.25,0,0,0,3.24-3.24V19.51a1.24,1.24,0,0,1,1.24-1.24h3.87a3.24,3.24,0,0,0,0-6.48H9.72A7.73,7.73,0,0,0,2,19.51v3.87A3.24,3.24,0,0,0,5.24,26.62ZM4,19.51a5.73,5.73,0,0,1,5.72-5.72h3.87a1.24,1.24,0,1,1,0,2.48H9.72a3.25,3.25,0,0,0-3.24,3.24v3.87a1.24,1.24,0,1,1-2.48,0Zm5.72,32.7h3.87a3.24,3.24,0,0,0,0-6.48H9.72a1.24,1.24,0,0,1-1.24-1.24V40.62a3.24,3.24,0,0,0-6.48,0v3.87A7.73,7.73,0,0,0,9.72,52.21ZM4,40.62a1.24,1.24,0,0,1,2.48,0v3.87a3.25,3.25,0,0,0,3.24,3.24h3.87a1.24,1.24,0,0,1,0,2.48H9.72A5.73,5.73,0,0,1,4,44.49ZM54.28,11.79H50.41a3.24,3.24,0,1,0,0,6.48h3.87a1.24,1.24,0,0,1,1.24,1.24v3.87a3.24,3.24,0,0,0,6.48,0V19.51A7.73,7.73,0,0,0,54.28,11.79ZM60,23.38a1.24,1.24,0,0,1-2.48,0V19.51a3.25,3.25,0,0,0-3.24-3.24H50.41a1.24,1.24,0,1,1,0-2.48h3.87A5.73,5.73,0,0,1,60,19.51Zm-1.24,14a3.25,3.25,0,0,0-3.24,3.24v3.87a1.24,1.24,0,0,1-1.24,1.24H50.41a3.24,3.24,0,1,0,0,6.48h3.87A7.73,7.73,0,0,0,62,44.49V40.62A3.24,3.24,0,0,0,58.76,37.38ZM60,44.49a5.73,5.73,0,0,1-5.72,5.72H50.41a1.24,1.24,0,1,1,0-2.48h3.87a3.25,3.25,0,0,0,3.24-3.24V40.62a1.24,1.24,0,0,1,2.48,0ZM10.58,29a1,1,0,0,1,1,1V34a1,1,0,0,1-2,0V30A1,1,0,0,1,10.58,29Zm4.75-2.62a1,1,0,0,1,1,1v9.16a1,1,0,1,1-2,0V27.42A1,1,0,0,1,15.33,26.42Zm4.74,16.47a1,1,0,0,1-1-1V22.11a1,1,0,0,1,2,0V41.89A1,1,0,0,1,20.07,42.89Zm4.74-5.31a1,1,0,0,1-1-1V27.42a1,1,0,0,1,2,0v9.16A1,1,0,0,1,24.81,37.58Zm4.75-2.08a1,1,0,0,1-1-1v-5a1,1,0,0,1,2,0v5A1,1,0,0,1,29.56,35.5Zm4.74,2.08a1,1,0,0,1-1-1V27.42a1,1,0,0,1,2,0v9.16A1,1,0,0,1,34.3,37.58Zm4.75-2.08a1,1,0,0,1-1-1v-5a1,1,0,0,1,2,0v5A1,1,0,0,1,39.05,35.5Zm3.88,6.39V22.11a1,1,0,1,1,2,0V41.89a1,1,0,0,1-2,0Zm5.74-4.31a1,1,0,0,1-1-1V27.42a1,1,0,0,1,2,0v9.16A1,1,0,0,1,48.67,37.58ZM53.42,35a1,1,0,0,1-1-1V30a1,1,0,0,1,2,0V34A1,1,0,0,1,53.42,35Z"/></svg>