<svg id="Outline_Expand" data-name="Outline Expand" xmlns="http://www.w3.org/2000/svg" viewBox="0 0 64 64"><title>AI voice_2</title><path fill="currentColor" d="M30.81,31.89l6-1.53a1.59,1.59,0,0,1,.86,0,16.36,16.36,0,0,0,5,.77c8.57,0,15.54-6.52,15.54-14.53S51.22,2.1,42.65,2.1,27.1,8.62,27.1,16.64a13.59,13.59,0,0,0,1.54,6.28,1.51,1.51,0,0,1-.14,1.67l-1.33,1.7a3.28,3.28,0,0,0-.31.45,7.79,7.79,0,1,0-9.69,12.13,13.34,13.34,0,0,0-8.75,9.54L5.93,56.29a4.57,4.57,0,0,0,.85,3.88,4.53,4.53,0,0,0,3.57,1.73H32.59a4.53,4.53,0,0,0,3.57-1.73A4.58,4.58,0,0,0,37,56.23l-2.45-7.75a13.4,13.4,0,0,0-8.77-9.61,7.78,7.78,0,0,0,3.5-6.5c0-.16,0-.3,0-.45a3.72,3.72,0,0,0,.66.08A4,4,0,0,0,30.81,31.89ZM32.61,49l2.45,7.75a2.55,2.55,0,0,1-2.47,3.14H28.75l-.85-8.16a1,1,0,0,0-1.09-.89,1,1,0,0,0-.9,1.1l.83,7.95H16.2L17,52a1,1,0,0,0-.9-1.1,1,1,0,0,0-1.09.89l-.85,8.16H10.35a2.57,2.57,0,0,1-2-1,2.51,2.51,0,0,1-.49-2.1l2.49-7.89A11.44,11.44,0,0,1,32.61,49ZM21.47,38.17a5.81,5.81,0,1,1,5.8-5.8A5.8,5.8,0,0,1,21.47,38.17Zm7.19-8.87a1.49,1.49,0,0,1,.08-1.78l1.34-1.69A3.57,3.57,0,0,0,30.41,22a11.6,11.6,0,0,1-1.31-5.36C29.1,9.72,35.18,4.1,42.65,4.1S56.19,9.72,56.19,16.64,50.12,29.17,42.65,29.17a14.69,14.69,0,0,1-4.36-.67,3.51,3.51,0,0,0-1.95-.08l-6,1.53A1.5,1.5,0,0,1,28.66,29.3ZM32.6,18.63V16a1,1,0,0,1,2,0v2.64a1,1,0,1,1-2,0ZM37,20.38V14.23a1,1,0,0,1,2,0v6.15a1,1,0,0,1-2,0Zm4.35,3.56V10.67a1,1,0,0,1,2,0V23.94a1,1,0,0,1-2,0Zm4.35-3.56V14.23a1,1,0,1,1,2,0v6.15a1,1,0,1,1-2,0ZM50,19V15.63a1,1,0,1,1,2,0V19a1,1,0,1,1-2,0Z"/></svg>