<svg id="Outline_Expand" data-name="Outline Expand" xmlns="http://www.w3.org/2000/svg" viewBox="0 0 64 64"><title>AI voice edit</title><path fill="currentColor" d="M62,11.2a5.8,5.8,0,0,0-5.8-5.79H7.79A5.79,5.79,0,0,0,2,11.2V52.8a5.79,5.79,0,0,0,5.79,5.79H56.2A5.8,5.8,0,0,0,62,52.8V11.2Zm-58,0A3.79,3.79,0,0,1,7.79,7.41H33.62l3.24,6.81H4ZM60,52.8a3.8,3.8,0,0,1-3.8,3.79H33l0-4.29a9.24,9.24,0,0,0,8.23-9.18V41.89a1,1,0,0,0-2,0v1.23a7.24,7.24,0,0,1-14.48,0V41.89a1,1,0,0,0-2,0v1.23A9.24,9.24,0,0,0,31,52.3l0,4.29H7.79A3.79,3.79,0,0,1,4,52.8V16.22H37.81l.15.31a5.58,5.58,0,0,0,5,3.17H60Zm0-35.1H43a3.56,3.56,0,0,1-3.2-2l-.39-.82,0,0L35.83,7.41H56.2A3.8,3.8,0,0,1,60,11.2ZM46.28,11.48a1,1,0,0,1,0,1.42L46.2,13a1,1,0,0,1-.71.29,1,1,0,0,1-.7-.29,1,1,0,0,1,0-1.42l.08-.08A1,1,0,0,1,46.28,11.48Zm7.48,0a1,1,0,0,1,0,1.42l-.08.08a1,1,0,0,1-.71.29,1,1,0,0,1-.71-.29,1,1,0,0,1,0-1.42l.08-.08A1,1,0,0,1,53.76,11.48ZM32.51,32.65h-1a4.89,4.89,0,0,0-4.88,4.88v5.71a4.88,4.88,0,0,0,4.88,4.87h1a4.88,4.88,0,0,0,4.88-4.87V37.53A4.89,4.89,0,0,0,32.51,32.65Zm2.88,10.59a2.88,2.88,0,0,1-2.88,2.87h-1a2.88,2.88,0,0,1-2.88-2.87V37.53a2.88,2.88,0,0,1,2.88-2.88h1a2.88,2.88,0,0,1,2.88,2.88ZM11.06,26.08v6.3a1,1,0,0,1-2,0v-6.3a1,1,0,0,1,2,0Zm5-2.28V34.65a1,1,0,0,1-2,0V23.8a1,1,0,0,1,2,0Zm5,2.28v6.3a1,1,0,0,1-2,0v-6.3a1,1,0,0,1,2,0Zm4.93,2v2.3a1,1,0,0,1-2,0v-2.3a1,1,0,0,1,2,0Zm27,4.3v-6.3a1,1,0,0,1,2,0v6.3a1,1,0,0,1-2,0Zm-5,2.27V23.8a1,1,0,0,1,2,0V34.65a1,1,0,0,1-2,0Zm-5-2.27v-6.3a1,1,0,1,1,2,0v6.3a1,1,0,0,1-2,0Zm-2.93-4.3v2.3a1,1,0,0,1-2,0v-2.3a1,1,0,0,1,2,0Z"/></svg>