<svg id="Outline_Expand" data-name="Outline Expand" xmlns="http://www.w3.org/2000/svg" viewBox="0 0 64 64"><title>AI voice setting</title><path fill="currentColor" d="M23.93,30.32v3.36a1,1,0,0,1-2,0V30.32a1,1,0,0,1,2,0Zm3.53-3.24a1,1,0,0,0-1,1v7.84a1,1,0,0,0,2,0V28.08A1,1,0,0,0,27.46,27.08ZM32,22.53a1,1,0,0,0-1,1V40.47a1,1,0,0,0,2,0V23.53A1,1,0,0,0,32,22.53Zm4.54,4.55a1,1,0,0,0-1,1v7.84a1,1,0,0,0,2,0V28.08A1,1,0,0,0,36.54,27.08Zm4.53,1.78a1,1,0,0,0-1,1v4.28a1,1,0,0,0,2,0V29.86A1,1,0,0,0,41.07,28.86ZM62,32a3.89,3.89,0,0,1-7.66,1H46.7V36l3.69,3.86,2.54,1.34a3.88,3.88,0,1,1-.82,2.37,4.2,4.2,0,0,1,0-.51l-2.85-1.51a1.24,1.24,0,0,1-.26-.19L46.7,38.86V41.7a5,5,0,0,1-5,5H38.78l2.5,2.39a.92.92,0,0,1,.19.25L43,52.2a3,3,0,0,1,.51-.06,4,4,0,1,1-2.36.82l-1.35-2.54L35.89,46.7H33v7.67a3.9,3.9,0,1,1-2,0V46.7H28.11l-3.89,3.72L22.87,53a3.88,3.88,0,1,1-2.36-.82,3,3,0,0,1,.51.06l1.51-2.86a.92.92,0,0,1,.19-.25l2.5-2.39H22.3a5,5,0,0,1-5-5V38.86L15,41.32a1.24,1.24,0,0,1-.26.19L11.84,43a4.2,4.2,0,0,1,.05.51,3.93,3.93,0,1,1-.82-2.37l2.54-1.34L17.3,36V33H9.66a3.91,3.91,0,1,1,0-2H17.3V28.11l-3.69-3.86-2.54-1.34A3.87,3.87,0,0,1,8,24.45a3.91,3.91,0,1,1,3.9-3.91,4.2,4.2,0,0,1-.05.51l2.85,1.51a1.24,1.24,0,0,1,.26.19l2.35,2.47V22.3a5,5,0,0,1,5-5h2.84L22.72,15a.92.92,0,0,1-.19-.25L21,11.88a4.4,4.4,0,0,1-.51,0,4,4,0,1,1,2.36-.82l1.35,2.54L28,17.3h3V9.7a3.9,3.9,0,1,1,2,0v7.6h3l3.82-3.65,1.35-2.54a3.88,3.88,0,1,1,2.36.82,4.4,4.4,0,0,1-.51,0l-1.51,2.85a.92.92,0,0,1-.19.25L38.86,17.3H41.7a5,5,0,0,1,5,5v2.92l2.35-2.47a1.24,1.24,0,0,1,.26-.19l2.85-1.51a4.2,4.2,0,0,1,0-.51,4,4,0,1,1,.82,2.37l-2.54,1.34L46.7,28.11V31h7.64A3.89,3.89,0,0,1,62,32Zm-7.89-11.5a1.91,1.91,0,1,0,1.9-1.9A1.91,1.91,0,0,0,54.11,20.54ZM41.59,8a1.91,1.91,0,1,0,1.9-1.9A1.91,1.91,0,0,0,41.59,8ZM22.41,8a1.91,1.91,0,1,0-1.9,1.91A1.9,1.9,0,0,0,22.41,8ZM9.89,20.54A1.91,1.91,0,1,0,8,22.45,1.9,1.9,0,0,0,9.89,20.54ZM7.81,32a1.91,1.91,0,1,0-1.91,1.9A1.92,1.92,0,0,0,7.81,32ZM9.89,43.53A1.91,1.91,0,1,0,8,45.43,1.9,1.9,0,0,0,9.89,43.53ZM22.41,56.05a1.91,1.91,0,1,0-1.9,1.9A1.91,1.91,0,0,0,22.41,56.05Zm19.18,0a1.91,1.91,0,1,0,1.9-1.91A1.9,1.9,0,0,0,41.59,56.05ZM32,7.84a1.9,1.9,0,1,0-1.9-1.9A1.9,1.9,0,0,0,32,7.84Zm0,48.39a1.91,1.91,0,1,0,1.9,1.9A1.9,1.9,0,0,0,32,56.23ZM44.7,22.3a3,3,0,0,0-3-3H22.3a3,3,0,0,0-3,3V41.7a3,3,0,0,0,3,3H41.7a3,3,0,0,0,3-3Zm9.41,21.23a1.91,1.91,0,1,0,1.9-1.9A1.9,1.9,0,0,0,54.11,43.53ZM60,32a1.91,1.91,0,1,0-1.9,1.9A1.91,1.91,0,0,0,60,32Z"/></svg>