<svg id="Outline_Expand" data-name="Outline Expand" xmlns="http://www.w3.org/2000/svg" viewBox="0 0 64 64"><title>AI voice record_2</title><path fill="currentColor" d="M18.77,23.1v4.11a1,1,0,0,1-2,0V23.1a1,1,0,0,1,2,0Zm5.78-3.73a1,1,0,0,0-1,1V30a1,1,0,0,0,2,0V20.37A1,1,0,0,0,24.55,19.37Zm6.79-5.56a1,1,0,0,0-1,1v20.7a1,1,0,0,0,2,0V14.81A1,1,0,0,0,31.34,13.81ZM56.88,43.89a13.13,13.13,0,0,1-8.19,12.16s0,.07,0,.11V59a3,3,0,0,1-3,3h-4a3,3,0,0,1-3-3V56.16s0-.07,0-.11a13.13,13.13,0,0,1-8-9.88,25,25,0,0,1-6.52-1.12A2.92,2.92,0,0,0,22.67,45l-9.38,2.37A4.93,4.93,0,0,1,12,47.5a4.94,4.94,0,0,1-3.85-8l2.08-2.63a3,3,0,0,0,.26-3.21A20.66,20.66,0,0,1,8.2,24.11C8.2,11.92,18.82,2,31.88,2s23.68,9.92,23.68,22.11a20.89,20.89,0,0,1-4.34,12.73v3.24a4,4,0,0,1,1.54-.31A4.13,4.13,0,0,1,56.88,43.89ZM34.75,39.77a4.26,4.26,0,0,1,1.54.3V32.83a5.56,5.56,0,0,1,.83-2.92V20.37a1,1,0,1,1,2,0V28a5.53,5.53,0,0,1,2.71-.71h2.08V22.54a1,1,0,1,1,2,0v4.75a5.55,5.55,0,0,1,5.31,5.54v.38a18.77,18.77,0,0,0,2.34-9.1C53.56,13,43.84,4,31.88,4S10.2,13,10.2,24.11a18.79,18.79,0,0,0,2.1,8.63,5,5,0,0,1-.46,5.36L9.76,40.74a2.94,2.94,0,0,0,3,4.67L22.18,43a5.06,5.06,0,0,1,2.75.11,23.19,23.19,0,0,0,5.71,1c0-.09,0-.18,0-.27A4.12,4.12,0,0,1,34.75,39.77Zm10.58-4.51a1,1,0,0,1,1-1h2.89V32.83a3.55,3.55,0,0,0-3.54-3.55H41.83a3.54,3.54,0,0,0-3.54,3.55v1.43h2.54a1,1,0,0,1,0,2H38.29v4.56h2.54a1,1,0,0,1,0,2H38.29V45a3.54,3.54,0,0,0,3.54,3.55h3.85A3.55,3.55,0,0,0,49.22,45v-2.2H46.33a1,1,0,0,1,0-2h2.89V36.26H46.33A1,1,0,0,1,45.33,35.26Zm1.38,21.42a13.7,13.7,0,0,1-3,.34,13.08,13.08,0,0,1-3-.34V59a1,1,0,0,0,1,1h4a1,1,0,0,0,1-1Zm8.17-12.79a2.12,2.12,0,0,0-2.12-2.12,2.07,2.07,0,0,0-1.54.69V45a5.55,5.55,0,0,1-5.54,5.55H41.83A5.55,5.55,0,0,1,36.29,45V42.46a2.09,2.09,0,0,0-1.54-.69,2.12,2.12,0,0,0-2.12,2.12,11.13,11.13,0,1,0,22.25,0Z"/></svg>