<svg id="Outline_Expand" data-name="Outline Expand" xmlns="http://www.w3.org/2000/svg" viewBox="0 0 64 64"><title>AI voice record_1</title><path fill="currentColor" d="M47.9,32.63A4.63,4.63,0,0,0,43.28,28H41.93V17.81a9.63,9.63,0,0,0-19.26,0V28H21.32a4.61,4.61,0,0,0-4.62,4.63,15.45,15.45,0,0,0,4.58,11,15.62,15.62,0,0,0,5.86,3.68v2.76A2.93,2.93,0,0,1,24.21,53H24a4.46,4.46,0,0,0-4.32,5.46,4.61,4.61,0,0,0,4.52,3.43H40.61A4.46,4.46,0,0,0,45,57.75a4.26,4.26,0,0,0-1.17-3.23A4.77,4.77,0,0,0,40.39,53a2.93,2.93,0,0,1-2.93-2.93V47.32A15.6,15.6,0,0,0,47.9,32.63ZM24.67,31.08h3a1,1,0,0,0,0-2h-3V25.45h3a1,1,0,0,0,0-2h-3V19.81h3a1,1,0,0,0,0-2h-3a7.63,7.63,0,0,1,15.26,0h-3a1,1,0,0,0,0,2h3v3.64h-3a1,1,0,0,0,0,2h3v3.63h-3a1,1,0,0,0,0,2h3v2a6.4,6.4,0,0,1-6.39,6.39H31.06a6.4,6.4,0,0,1-6.39-6.39ZM40.39,55a2.78,2.78,0,0,1,2,.87A2.34,2.34,0,0,1,43,57.61a2.45,2.45,0,0,1-2.43,2.29H24.19A2.59,2.59,0,0,1,21.62,58,2.45,2.45,0,0,1,24,55h.22a4.93,4.93,0,0,0,4.93-4.93V47.89a15.29,15.29,0,0,0,6.32,0v2.19A4.93,4.93,0,0,0,40.39,55ZM32.3,46.22A13.64,13.64,0,0,1,18.7,32.63,2.61,2.61,0,0,1,21.32,30h1.35v3.12a8.39,8.39,0,0,0,8.39,8.39h2.48a8.39,8.39,0,0,0,8.39-8.39V30h1.35a2.63,2.63,0,0,1,2.62,2.63A13.61,13.61,0,0,1,32.3,46.22ZM18.05,13.29a1,1,0,0,1-.72,1.22l-.25,0a1,1,0,0,1-1-.76,4.56,4.56,0,0,1,2.78-5.3,1,1,0,0,1,.71,1.87A2.6,2.6,0,0,0,18.05,13.29ZM10.5,15.56A10.73,10.73,0,0,1,17.55,2.15a1,1,0,0,1,1.25.65,1,1,0,0,1-.66,1.26A8.72,8.72,0,0,0,12.42,15a1,1,0,0,1-.66,1.25,1,1,0,0,1-.3.05A1,1,0,0,1,10.5,15.56Zm37.39-1.78a1,1,0,0,1-1,.76l-.25,0A1,1,0,0,1,46,13.29a2.6,2.6,0,0,0-1.55-2.94,1,1,0,0,1,.71-1.87A4.56,4.56,0,0,1,47.89,13.78ZM51.58,15A8.72,8.72,0,0,0,45.86,4.06,1,1,0,0,1,45.2,2.8a1,1,0,0,1,1.25-.65,10.73,10.73,0,0,1,7,13.41,1,1,0,0,1-1,.71,1,1,0,0,1-.3-.05A1,1,0,0,1,51.58,15Z"/></svg>