<svg fill="currentColor" id="Capa_1" height="512" viewBox="0 0 512 512" width="512" xmlns="http://www.w3.org/2000/svg"><g><g><g><path d="m497.576 254.971-86.675-35.355v-7.059c0-5.522-4.478-10-10-10-5.159 0-9.404 3.909-9.94 8.925l-49.806-20.316c18.36-20.312 29.556-47.216 29.556-76.687 0-63.125-51.355-114.479-114.479-114.479s-114.479 51.354-114.479 114.479c0 29.397 11.142 56.238 29.419 76.532l-156.745 63.942c-7.595 3.103-12.5 10.409-12.495 18.612.004 8.198 4.913 15.493 12.508 18.587l88.371 35.962c-.142 1.675-.222 3.363-.222 5.065v107.311c0 3.936 2.424 7.617 6.034 9.18l66.43 28.7c26.153 11.297 54.192 16.942 82.23 16.941 28.451 0 56.901-5.814 83.367-17.437l34.633-15.212c-9.304 21.057-9.169 38.629-9.156 39.492.085 5.462 4.536 9.846 9.999 9.846h49.55c5.463 0 9.914-4.384 9.999-9.846.014-.906.16-20.286-10.663-42.766 6.812-6.421 11.076-15.515 11.076-25.593v-19.107c0-15.929-10.642-29.411-25.187-33.731v-53.361l86.682-35.439h.002c7.584-3.103 12.483-10.4 12.483-18.591s-4.899-15.489-12.492-18.595zm-241.344-234.971c52.096 0 94.479 42.383 94.479 94.479 0 51.341-42.885 94.365-94.278 94.477-39.504.072-75.757-25.424-89.129-62.555-3.68-10.219-5.551-21.062-5.551-31.922 0-52.096 42.384-94.479 94.479-94.479zm-234.251 253.628c-.019-.007-.034-.014-.047-.02-.005-.037-.004-.081.001-.117.014-.006.03-.014.051-.022l165.443-67.49c19.779 14.878 44.297 23.049 69.048 22.976 24.514-.051 48.742-8.146 68.366-22.842l66.058 26.945v55.432c-8.588-7.664-19.183-11.628-29.562-16.165-66.38-28.977-142.524-29.002-208.906-.062-5.63 2.453-11.402 4.704-16.889 7.469-12.186 6.14-22.05 16.412-27.662 28.854zm310.627 185.935c-47.479 20.849-102.013 21.012-149.624.446l-43.924-18.977c24.742-9.548 49.541-19.366 75.765-24.001 5.438-.962 9.068-6.149 8.107-11.588-.962-5.439-6.164-9.063-11.588-8.107-30.77 5.44-59.74 17.414-88.756 28.612v-92.768c0-13.594 7.215-26.537 18.712-33.749 5.893-3.697 12.766-6.063 19.124-8.834 61.3-26.721 131.615-26.699 192.909.057 6.08 2.658 12.609 4.934 18.299 8.385 11.823 7.17 19.265 20.254 19.265 34.101v47.809c-15.801 4.686-25.347 19.454-25.184 35.545-20.669-7.765-41.145-15.163-62.952-19.064-5.439-.973-10.632 2.646-11.604 8.083-.973 5.437 2.646 10.632 8.083 11.604 23.142 4.139 44.8 12.603 66.718 20.834.251 2.155.704 4.3 1.35 6.37zm74.563 8.864c4.299 9.044 6.425 17.448 7.477 23.573h-27.492c1.054-6.127 3.184-14.537 7.488-23.583 4.12.752 8.405.749 12.527.01zm8.917-53.739v19.107c0 8.239-6.951 15.186-15.182 15.186-8.24 0-15.188-6.959-15.188-15.19v-19.101c0-8.251 6.928-15.188 15.183-15.188 8.374-.001 15.187 6.811 15.187 15.186zm73.977-141.066c-.015.006-.031.014-.051.022l-79.113 32.345v-64.773l79.111 32.269c.021.009.038.017.053.023.004.036.004.079 0 .114z"/><path d="m255.979 393.54c-4.079.828-7.285 4.174-7.928 8.283-.69 4.407 1.759 8.858 5.832 10.658 8.363 3.695 17.034-5.339 13.007-13.548-1.959-3.997-6.539-6.268-10.911-5.393z"/></g><path d="m272.896 103.849c-1.893-.669-3.785-1.351-5.656-2.044v-33.421c2.813 1.002 4.761 2.273 5.709 2.971 1.825 1.918 4.395 3.12 7.252 3.12 5.532 0 10.016-4.484 10.016-10.016 0-2.899-1.239-5.503-3.208-7.332l.051-.055c-.455-.42-7.783-7.023-19.82-9.338v-1.51c0-5.522-4.478-10-10-10s-10 4.478-10 10v2.212c-.707.18-1.419.375-2.141.592-12.326 3.713-21.53 13.975-24.021 26.779-2.301 11.829 1.592 23.122 10.411 30.206 4.288 3.444 9.552 6.421 15.75 9.242v44.027c-4.863-.643-8.496-2.234-14.189-5.959-4.622-3.024-10.821-1.727-13.843 2.894-3.023 4.622-1.728 10.819 2.894 13.843 9.83 6.43 16.739 8.644 25.139 9.335v2.973c0 5.522 4.478 10 10 10s10-4.478 10-10v-3.917c17.13-4.24 28.113-18.826 30.531-33.207 3.142-18.695-6.623-34.942-24.875-41.395zm-25.657-11.163c-1.176-.741-2.264-1.495-3.225-2.266-2.927-2.352-4.162-6.387-3.305-10.797.655-3.365 2.704-7.311 6.529-9.771v22.834zm30.808 49.241c-.978 5.818-4.641 11.955-10.808 15.27v-34.107c11.791 4.71 11.506 14.683 10.808 18.837z"/></g></g></svg>