<svg fill="currentColor" id="Capa_1" height="512" viewBox="0 0 511.881 511.881" width="512" xmlns="http://www.w3.org/2000/svg"><g><g><g><path d="m458.301 430.643-75.084-59.852c-6.428-5.125-16.233-.382-16.233 7.819v28.428h-142.662c-93.441 0-169.461-76.02-169.461-169.461 0-5.522-4.478-10-10-10s-10 4.478-10 10v47.183c0 104.469 84.992 189.46 189.461 189.46h142.661v27.72c0 8.314 10.068 13.038 16.456 7.637l75.084-63.478c4.74-4.006 4.632-11.588-.222-15.456zm-71.317 49.748v-16.171c0-5.522-4.478-10-10-10h-152.662c-75.22 0-139.151-49.266-161.225-117.222 33.419 53.998 93.189 90.04 161.225 90.04h152.661c5.522 0 10-4.478 10-10v-17.668l49.326 39.319z"/><path d="m287.559 37.66h-152.663v-27.72c0-8.33-10.08-13.028-16.456-7.637l-75.084 63.478c-2.286 1.933-3.586 4.788-3.543 7.781s1.425 5.81 3.766 7.675l75.084 59.852c6.428 5.125 16.233.382 16.233-7.819v-28.428h78.184c5.974 0 10.728-5.451 9.905-11.374-.712-5.347-5.548-9.161-10.909-8.626h-87.18c-5.522 0-10 4.478-10 10v17.668l-49.326-39.32 49.326-41.701v16.171c0 5.522 4.478 10 10 10h162.663c75.105 0 138.957 49.116 161.123 116.912-6.422-10.354-13.88-20.143-22.318-29.221-32.415-34.876-76.29-56.142-123.583-59.903-5.842-.642-11.109 4.061-11.109 9.943 0 5.222 4.018 9.564 9.225 9.97 42.398 3.299 81.755 22.336 110.818 53.606 29.216 31.433 45.306 72.394 45.306 115.335 0 5.522 4.478 10 10 10s10-4.478 10-10v-47.182c-.001-104.469-84.993-189.46-189.462-189.46z"/><path d="m127.926 256.4c0 70.853 57.643 128.495 128.495 128.495s128.495-57.643 128.495-128.495-57.643-128.495-128.495-128.495-128.495 57.642-128.495 128.495zm128.495-108.495c59.824 0 108.495 48.671 108.495 108.495s-48.671 108.495-108.495 108.495-108.495-48.671-108.495-108.495 48.671-108.495 108.495-108.495z"/><path d="m259.13 104.65c8.97-1.819 10.902-14.29 2.762-18.621-3.837-2.041-8.702-1.337-11.781 1.742-2.996 2.996-3.759 7.699-1.891 11.49 1.965 3.989 6.533 6.278 10.91 5.389z"/></g><path d="m274.872 245.608c-2.448-.865-4.897-1.747-7.309-2.649v-40.68c5.604 1.599 8.96 4.367 9.397 4.743 1.782 1.654 4.162 2.673 6.785 2.673 5.516 0 9.987-4.471 9.987-9.987 0-2.936-1.275-5.568-3.292-7.395l.034-.037c-.515-.474-9.004-8.112-22.911-10.456v-2.835c0-5.522-4.478-10-10-10s-10 4.478-10 10v3.571c-1.113.262-2.236.549-3.382.894-13.502 4.066-23.584 15.311-26.313 29.343-2.513 12.919 1.724 25.24 11.331 32.958 4.948 3.975 11.088 7.403 18.364 10.663v52.308c-6.518-.607-10.896-2.388-18.169-7.146-4.622-3.023-10.82-1.727-13.843 2.894-3.023 4.622-1.729 10.819 2.894 13.843 11.367 7.437 19.232 9.796 29.118 10.458v4.625c0 5.522 4.478 10 10 10s10-4.478 10-10v-5.517c19.448-4.339 31.935-20.686 34.646-36.809 3.451-20.528-7.279-38.371-27.337-45.462zm-27.308-11.555c-6.823-3.914-11.702-9.016-10.063-17.442.912-4.685 4.031-10.294 10.063-13.094zm34.923 53.699c-1.272 7.568-6.339 15.587-14.923 19.232v-42.749c10.307 3.654 16.786 12.43 14.923 23.517z"/></g></g></svg>