<svg fill="currentColor" id="Capa_1" height="512" viewBox="0 0 511.991 511.991" width="512" xmlns="http://www.w3.org/2000/svg"><g><g><g><path d="m501.458 182.884v-17.029c0-8.777-4.41-16.848-11.797-21.589l-215.5-138.302c-12.494-8.018-28.594-7.946-41.016.187l-211.011 138.15c-7.265 4.755-11.602 12.778-11.602 21.461v17.122c0 13.381 10.886 24.268 24.268 24.268h22.025c-.99 2.938-1.535 6.08-1.535 9.348 0 12.672 8.075 23.494 19.348 27.594v153.147h-10.398c-11.51 0-20.875 9.364-20.875 20.875v25.626c0 .295.032.582.044.874h-12.002c-11.51 0-20.874 9.364-20.874 20.875v25.626c0 11.51 9.364 20.874 20.874 20.874h449.178c11.51 0 20.874-9.364 20.874-20.874v-25.626c0-11.511-9.364-20.875-20.874-20.875h-16.701c.012-.292.044-.579.044-.874v-25.626c0-11.511-9.364-20.875-20.874-20.875h-10.397v-153.149c11.273-4.099 19.347-14.921 19.347-27.593 0-3.268-.545-6.409-1.535-9.348h26.722c13.381.001 24.267-10.886 24.267-24.267zm-470.925 0v-17.122c0-1.913.956-3.681 2.556-4.729l211.011-138.151c5.833-3.817 13.393-3.852 19.259-.087l215.5 138.303c1.628 1.045 2.6 2.823 2.6 4.757v17.029c0 2.354-1.915 4.268-4.268 4.268h-442.391c-2.353 0-4.267-1.914-4.267-4.268zm328.619 61.209v153.147h-68.752v-153.148c11.273-4.099 19.347-14.921 19.347-27.593 0-3.268-.545-6.409-1.535-9.348h33.128c-.99 2.938-1.535 6.08-1.535 9.348-.001 12.673 8.074 23.495 19.347 27.594zm-211.01 153.148v-153.148c11.273-4.1 19.348-14.922 19.348-27.594 0-3.268-.545-6.409-1.535-9.348h33.128c-.99 2.938-1.535 6.08-1.535 9.348 0 12.672 8.075 23.494 19.348 27.594v153.147h-68.754zm88.752 0v-161.394c0-5.522-4.477-10-10-10-5.154 0-9.348-4.193-9.348-9.348s4.193-9.348 9.348-9.348h53.505c5.154 0 9.347 4.193 9.347 9.348s-4.193 9.348-9.347 9.348c-5.523 0-10 4.478-10 10v161.394zm-152.257-171.394c-5.154 0-9.348-4.193-9.348-9.348s4.193-9.348 9.348-9.348h53.505c5.154 0 9.348 4.193 9.348 9.348s-4.193 9.348-9.348 9.348c-5.523 0-10 4.478-10 10v161.394h-33.505v-161.394c0-5.522-4.477-10-10-10zm359.291 192.269v25.626c0 .481-.392.874-.874.874h-144.273c-5.523 0-10 4.478-10 10s4.477 10 10 10h181.804c.482 0 .874.393.874.875v25.626c0 .482-.392.874-.874.874h-449.178c-.482 0-.874-.392-.874-.874v-25.626c0-.482.392-.875.874-.875h178.439c5.523 0 10-4.478 10-10s-4.477-10-10-10h-145.606c-.482 0-.875-.393-.875-.874v-25.626c0-.482.392-.875.875-.875h378.814c.482 0 .874.392.874.875zm-11.924-201.616c0 5.154-4.193 9.348-9.347 9.348-5.523 0-10 4.478-10 10v161.394h-33.505v-161.395c0-5.522-4.477-10-10-10-5.154 0-9.348-4.193-9.348-9.348s4.193-9.348 9.348-9.348h53.505c5.154.001 9.347 4.194 9.347 9.349z"/><path d="m118.75 163.548h273.032c6.199 0 11.536-3.996 13.28-9.944 1.745-5.948-.587-12.194-5.805-15.544l-127.573-81.875c-10.847-6.962-24.822-6.898-35.604.162l-124.91 81.78c-5.162 3.38-7.445 9.622-5.682 15.535 1.762 5.913 7.092 9.886 13.262 9.886zm128.285-90.468c4.193-2.746 9.628-2.771 13.847-.062l109.898 70.53h-231.376z"/><path d="m263.895 450.791c-1.64-3.934-5.712-6.462-9.971-6.145-4.175.311-7.773 3.271-8.895 7.301-2.372 8.527 7.191 15.78 14.764 11.244 4.192-2.511 5.986-7.883 4.102-12.4z"/></g></g></g></svg>