<svg fill="currentColor" id="Capa_1" height="512" viewBox="0 0 511.933 511.933" width="512" xmlns="http://www.w3.org/2000/svg"><g><g><g><path d="m511.078 98.378c-1.602-3.619-5.188-5.954-9.146-5.954h-79.92l9.248-24.491c2.43-6.434-2.491-13.532-9.355-13.532h-64.187c-.198-12.987-8.751-24.739-21.002-28.972-16.251-5.617-34.037 3.036-39.652 19.285l-41.181 119.284-41.084-119.279c-6.403-16.893-22.048-25.377-39.659-19.286-12.247 4.234-20.8 15.983-20.997 28.968h-64.182c-6.865 0-11.785 7.097-9.355 13.532l9.248 24.491h-79.921c-8.49 0-13.128 10.426-7.399 16.727l59.289 65.215-15.5 59.512c-1.623 6.233 3.246 12.521 9.677 12.521h98.831c6.863 0 11.783-7.094 9.357-13.528l-9.236-24.495h50.436l17.597 50.917-23.211 67.232c-1.802 5.221.969 10.914 6.189 12.716 5.221 1.804 10.914-.968 12.716-6.188l97.288-281.807c2.013-5.824 8.392-8.924 14.216-6.913 5.745 1.986 8.904 8.451 6.914 14.213l-139.272 402.532c-1.53 4.421-5.701 7.392-10.378 7.392h-.109c-3.596 0-6.855-1.68-8.943-4.608-2.087-2.929-2.611-6.558-1.438-9.957l12.995-37.641c1.802-5.221-.969-10.914-6.189-12.716-5.219-1.805-10.914.969-12.716 6.188l-12.995 37.642c-3.262 9.449-1.746 19.951 4.056 28.092 5.802 8.14 15.233 13 25.229 13h.109c13.197 0 24.964-8.38 29.279-20.853l39.123-113.078 38.819 113.013c4.298 12.511 16.073 20.917 29.302 20.917 9.985 0 19.41-4.852 25.213-12.978s7.332-18.616 4.091-28.062l-64.521-187.994 17.667-51.063h50.493l-9.236 24.495c-2.425 6.434 2.495 13.528 9.357 13.528h98.831c6.43 0 11.302-6.286 9.677-12.521l-15.5-59.512 59.289-65.215c2.664-2.926 3.349-7.149 1.748-10.769zm-442.141 128.019 13.604-52.231c.852-3.27-.005-6.748-2.278-9.247l-47.725-52.495h64.862l42.972 113.974h-71.435zm78.524-38.023-43.036-113.974h54.66l39.39 113.974zm27.306-129.836c-1.992-5.757 1.168-12.218 6.909-14.204 5.759-1.989 12.227 1.156 14.219 6.912l49.399 143.425-11.734 33.99zm158.139 405.332c-2.087 2.923-5.345 4.6-8.937 4.6-4.688 0-8.862-2.979-10.386-7.415l-47.072-137.037 11.67-33.772 56.175 163.678c1.167 3.396.638 7.022-1.45 9.946zm31.498-275.496h-51.016l39.391-113.974h54.661zm67.198-23.455c-2.272 2.499-3.129 5.978-2.277 9.247l13.604 52.231h-71.435l42.972-113.974h64.861z"/><path d="m186.882 375.98c2.983 4.551 9.357 5.782 13.86 2.771 4.526-3.027 5.798-9.337 2.77-13.87-3.031-4.536-9.334-5.769-13.87-2.761-4.539 3.011-5.772 9.34-2.76 13.86z"/></g></g></g></svg>