<svg fill="currentColor" id="Capa_1" height="512" viewBox="0 0 512 512" width="512" xmlns="http://www.w3.org/2000/svg"><g><g><g><path d="m487.74 97.418h-62.06v-1.841c0-5.523-4.478-10-10-10h-44.065c-5.522 0-10 4.477-10 10v1.841h-34.018v-38.418c0-18.104-14.729-32.833-32.832-32.833h-77.527c-18.104 0-32.832 14.729-32.832 32.833v38.418h-32.686v-1.841c0-5.523-4.478-10-10-10h-43.066c-5.522 0-10 4.477-10 10v1.841h-64.384c-13.382 0-24.27 10.883-24.27 24.26v101.681c0 10.572 6.755 19.854 16.81 23.097 2.926.944 5.831 1.951 8.771 2.853v199.761c0 15.594 12.687 28.28 28.28 28.28h34.921c.733 4.801 4.867 8.483 9.873 8.483h43.065c5.005 0 9.14-3.682 9.873-8.483h59.93c5.522 0 10-4.477 10-10s-4.478-10-10-10h-59.803v-72.344c5.212-.342 9.338-4.667 9.338-9.967v-55.87c0-5.299-4.125-9.624-9.338-9.967v-34.069c34.598 4.154 69.424 6.605 104.28 6.605 35.294 0 70.6-2.279 105.615-6.701v34.166c-5.212.342-9.338 4.667-9.338 9.967v55.87c0 5.299 4.125 9.624 9.338 9.967v72.344h-62.13c-5.522 0-10 4.477-10 10s4.478 10 10 10h62.257c.733 4.801 4.867 8.483 9.873 8.483h44.065c5.005 0 9.14-3.682 9.873-8.483h32.626c15.594 0 28.28-12.687 28.28-28.28v-199.816c2.923-.891 5.825-1.851 8.73-2.799 10.055-3.244 16.81-12.525 16.81-23.097v-101.681c.001-13.377-10.882-24.26-24.259-24.26zm-283.334-38.418c0-7.076 5.757-12.833 12.832-12.833h77.527c7.075 0 12.832 5.757 12.832 12.833v38.417h-103.191zm210.613 306.039h-42.741v-35.869h42.741zm-33.399 20.001h24.06v80.793h-24.06zm24.061-279.463-.001 150.252v53.34h-24.06v-45.55l-.005-158.042zm-44.066 11.841v137.452c-35.007 4.528-70.315 6.869-105.615 6.869-34.863 0-69.686-2.532-104.28-6.76v-137.561zm-220.557 247.621h-41.74v-35.869h41.74zm-9.338-259.462v158.222.01 45.36h-23.065v-203.592zm-111.72 117.782v-101.681c0-2.349 1.915-4.26 4.27-4.26h64.38v126.339c-21.979-4.852-44.277-9.418-65.7-16.336-1.764-.568-2.95-2.201-2.95-4.062zm33.86 233.991c-4.565 0-8.28-3.714-8.28-8.28v-194.678c13.891 3.322 29.802 7.039 43.07 9.848v44.963c-5.21.345-9.333 4.669-9.333 9.966v55.87c0 5.298 4.123 9.622 9.333 9.966v72.344h-34.79zm54.794-72.31h23.065v80.793h-23.065zm357.806 64.03c0 4.566-3.715 8.28-8.28 8.28h-32.499v-72.344c5.212-.342 9.338-4.667 9.338-9.967v-55.87c0-5.299-4.125-9.624-9.338-9.967v-45.23c13.648-2.903 27.234-6.105 40.779-9.453zm25.54-225.711c0 1.861-1.186 3.494-2.958 4.065-20.687 6.75-42.112 11.462-63.361 16.09v-126.096h62.06c2.349 0 4.26 1.911 4.26 4.26v101.681z"/><path d="m265.899 463.53c-1.615-3.941-5.72-6.461-9.963-6.144-4.357.326-8.044 3.524-9.022 7.776-2.011 8.742 8.208 15.457 15.507 10.358 3.784-2.643 5.253-7.731 3.478-11.99z"/></g></g></g></svg>