<svg fill="currentColor" id="Capa_1" height="512" viewBox="0 0 512 512" width="512" xmlns="http://www.w3.org/2000/svg"><g><g><g><path d="m334.576 59.56c-21.71 0-39.373 17.663-39.373 39.373v10.136c-15.848 5.977-31.518 12.36-47.141 18.898-5.095 2.131-7.499 7.988-5.368 13.084 2.131 5.095 7.991 7.498 13.083 5.367 13.082-5.472 26.174-10.915 39.425-15.969v196.526c-14.395-5.488-26.06-10.373-36.43-14.716-37.734-15.8-73.505-23.721-114.562-23.721h-30.217v-119.652h30.216c8.782 0 16.611-.186 23.935-.568 5.515-.288 9.753-4.992 9.465-10.508s-5-9.765-10.508-9.465c-6.973.364-14.46.541-22.892.541h-30.216v-7.375c0-5.522-4.477-10-10-10h-59.501c-24.533 0-44.492 19.959-44.492 44.491v102.878c0 24.533 19.959 44.492 44.492 44.492h52.521l29.776 76.351c13.85 35.474 35.722 52.718 66.865 52.718 14.65 0 26.569-11.906 26.569-26.542 0-3.275-.606-6.507-1.809-9.62l-41.499-106.887c19.776 1.669 39.03 6.618 74.133 21.317 14.626 6.124 29.317 12.055 44.155 17.649v11.44c0 21.71 17.663 39.373 39.373 39.373s39.373-17.663 39.373-39.373v-260.865c-.001-21.71-17.663-39.373-39.373-39.373zm-290.084 243.812c-13.505 0-24.492-10.987-24.492-24.492v-102.878c0-13.505 10.987-24.491 24.492-24.491h49.502v151.861zm110.681 5.281 44.59 114.848c.305.789.459 1.596.459 2.397 0 3.146-2.511 6.542-6.569 6.542-22.865 0-37.291-11.96-48.233-39.988l-31.08-79.692-.104-4.221h29.974c1.039 0 8.008.046 10.963.114zm198.775 51.144c0 10.683-8.69 19.373-19.373 19.373s-19.373-8.69-19.373-19.373v-260.864c0-10.683 8.691-19.373 19.373-19.373s19.373 8.69 19.373 19.373z"/><path d="m422.998 134.411c-3.921-3.89-10.253-3.864-14.142.058-3.89 3.921-3.864 10.253.058 14.142.31.309 31.047 31.45 31.047 88.013 0 55.899-30.538 87.494-31.069 88.034-3.9 3.891-3.918 10.206-.037 14.12 3.836 3.869 10.275 3.895 14.142.058 1.509-1.497 36.963-37.407 36.963-102.212.001-64.805-35.453-100.716-36.962-102.213z"/><path d="m455.295 88.333c-3.973-3.825-10.282-3.702-14.115.263-3.833 3.964-3.725 10.29.23 14.132.127.123 12.853 12.615 25.383 35.874 11.499 21.346 25.207 56.455 25.207 102.493s-13.708 81.146-25.207 102.493c-12.458 23.124-25.109 35.605-25.38 35.871-3.967 3.831-4.083 10.151-.258 14.126 3.777 3.925 10.214 4.051 14.14.271 2.315-2.227 56.705-55.684 56.705-152.761s-54.39-150.534-56.705-152.762z"/><path d="m202.69 155.67c2.096 5.028 8.008 7.492 13.05 5.41 5.031-2.077 7.501-8.035 5.41-13.061-2.093-5.03-8.017-7.499-13.06-5.41-5.048 2.091-7.462 8.026-5.4 13.061z"/></g></g></g></svg>