<?xml version="1.0" encoding="UTF-8"?>
<svg id="Layer_3" data-name="Layer 3" xmlns="http://www.w3.org/2000/svg" viewBox="0 0 500 500">
  <rect x="119.09" y="31.82" width="261.82" height="436.36" rx="43.64" ry="43.64" fill="currentColor" stroke-width="0"/>
  <rect x="64.55" y="151.82" width="370.91" height="196.36" rx="10.91" ry="10.91" transform="translate(500 0) rotate(90)" fill="currentColor" stroke-width="0"/>
  <path d="M298.25,270.17c-3.31-3.31-8.68-3.31-12,0l-6.17,6.17c-2.72,2.72-5.31,5.6-7.33,8.87-3.69,5.99-14.83,16.62-40.49-9.04-25.66-25.66-15.03-36.81-9.04-40.49,3.27-2.01,6.15-4.61,8.87-7.33l6.17-6.17c3.31-3.31,3.31-8.68,0-12l-18-18c-3.31-3.31-8.68-3.31-12,0l-12,12s-28.03,43.96,18,89.98c46.02,46.02,89.98,18,89.98,18l12-12c3.31-3.31,3.31-8.68,0-12l-18-18Z" fill="currentColor" stroke-width="0"/>
  <path d="M419.09,135.45c-9.02,0-16.36,7.34-16.36,16.36v196.36c0,9.02,7.34,16.36,16.36,16.36s16.36-7.34,16.36-16.36v-196.36c0-9.02-7.34-16.36-16.36-16.36Z" fill="currentColor" stroke-width="0"/>
  <path d="M473.64,179.09c-9.02,0-16.36,7.34-16.36,16.36v109.09c0,9.02,7.34,16.36,16.36,16.36s16.36-7.34,16.36-16.36v-109.09c0-9.02-7.34-16.36-16.36-16.36Z" fill="currentColor" stroke-width="0"/>
  <path d="M80.91,135.45c-9.02,0-16.36,7.34-16.36,16.36v196.36c0,9.02,7.34,16.36,16.36,16.36s16.36-7.34,16.36-16.36v-196.36c0-9.02-7.34-16.36-16.36-16.36Z" fill="currentColor" stroke-width="0"/>
  <path d="M26.36,179.09c-9.02,0-16.36,7.34-16.36,16.36v109.09c0,9.02,7.34,16.36,16.36,16.36s16.36-7.34,16.36-16.36v-109.09c0-9.02-7.34-16.36-16.36-16.36Z" fill="currentColor" stroke-width="0"/>
  <path d="M293.64,62.65h-87.27l18.86,17.09c1.9,1.72,4.37,2.68,6.94,2.68h35.67c2.57,0,5.04-.95,6.94-2.68l18.86-17.09Z" fill="currentColor" stroke-width="0"/>
</svg>