<?xml version="1.0" encoding="UTF-8"?>
<svg id="Layer_3" data-name="Layer 3" xmlns="http://www.w3.org/2000/svg" viewBox="0 0 500 500">
  <path d="M359.05,328.17c-10.47-10.47-27.45-10.47-37.92,0l-19.5,19.5c-8.59,8.59-16.79,17.7-23.16,28.05-11.65,18.94-46.88,52.53-127.99-28.58-81.11-81.11-47.52-116.34-28.58-127.99,10.35-6.37,19.45-14.56,28.05-23.16l19.5-19.5c10.47-10.47,10.47-27.45,0-37.92l-56.88-56.88c-10.47-10.47-27.45-10.47-37.92,0l-37.92,37.92s-88.58,138.95,56.88,284.42c145.47,145.47,284.42,56.88,284.42,56.88l37.92-37.92c10.47-10.47,10.47-27.45,0-37.92l-56.88-56.88Z" fill="currentColor" stroke-width="0"/>
  <ellipse cx="363.68" cy="126.07" rx="126.32" ry="113.68" fill="currentColor" stroke-width="0"/>
  <path d="M262.63,194.22l-19.55,54.8c-2.41,6.75,3.77,13.41,10.68,11.53l84.66-23.1s0-63.5-75.78-43.23Z" fill="currentColor" stroke-width="0"/>
  <g>
    <circle cx="313.16" cy="126.07" r="12.63" fill="currentColor" stroke-width="0"/>
    <circle cx="363.68" cy="126.07" r="12.63" fill="currentColor" stroke-width="0"/>
    <circle cx="414.21" cy="126.07" r="12.63" fill="currentColor" stroke-width="0"/>
  </g>
</svg>