<?xml version="1.0" encoding="UTF-8"?>
<svg id="Layer_3" data-name="Layer 3" xmlns="http://www.w3.org/2000/svg" viewBox="0 0 500 500">
  <path d="M116.67,241.57c14.73,0,26.67-11.94,26.67-26.67v-2.3c0-12.08-.64-24.25-3.44-36-5.12-21.51-3.97-69.9,110.11-69.9,114.07,0,115.23,48.4,110.11,69.9-2.8,11.75-3.44,23.92-3.44,36v2.3c0,14.73,11.94,26.67,26.67,26.67h80c14.73,0,26.67-11.94,26.67-26.67v-28.21S454.58,26.7,250,26.7c-204.58,0-240,160-240,160v28.21c0,14.73,11.94,26.67,26.67,26.67h80Z" fill="currentColor" stroke-width="0"/>
  <path d="M199.75,146.7h100.49c13.87,0,25.12,11.26,25.12,25.12v100.49h-150.74v-100.49c0-13.87,11.26-25.12,25.12-25.12Z" fill="currentColor" stroke-width="0"/>
  <path d="M432.82,423.06H67.18c-19.29,0-31.38-20.84-21.81-37.59l57.31-100.3c13.42-23.48,38.39-37.98,65.44-37.98h163.76c27.05,0,52.02,14.49,65.44,37.98l57.31,100.3c9.57,16.75-2.52,37.59-21.81,37.59Z" fill="currentColor" stroke-width="0"/>
  <rect x="23.89" y="397.93" width="452.22" height="75.37" rx="25.12" ry="25.12" fill="currentColor" stroke-width="0"/>
  <ellipse cx="250" cy="322.56" rx="75.37" ry="50.25" fill="currentColor" stroke-width="0"/>
</svg>