<?xml version="1.0" encoding="UTF-8"?>
<svg id="Layer_3" data-name="Layer 3" xmlns="http://www.w3.org/2000/svg" viewBox="0 0 500 500">
  <path d="M46,82h408v288c0,26.49-21.51,48-48,48H94c-26.49,0-48-21.51-48-48V82h0Z" fill="currentColor" stroke-width="0"/>
  <rect x="22" y="10" width="456" height="72" rx="24" ry="24" fill="currentColor" stroke-width="0"/>
  <g>
    <circle cx="271.88" cy="157.63" r="16.94" fill="currentColor" stroke-width="0"/>
    <circle cx="334" cy="157.63" r="16.94" fill="currentColor" stroke-width="0"/>
    <circle cx="396.12" cy="157.63" r="16.94" fill="currentColor" stroke-width="0"/>
  </g>
  <g>
    <circle cx="271.88" cy="236.69" r="16.94" fill="currentColor" stroke-width="0"/>
    <circle cx="334" cy="236.69" r="16.94" fill="currentColor" stroke-width="0"/>
    <circle cx="396.12" cy="236.69" r="16.94" fill="currentColor" stroke-width="0"/>
  </g>
  <g>
    <circle cx="271.88" cy="315.75" r="16.94" fill="currentColor" stroke-width="0"/>
    <circle cx="334" cy="315.75" r="16.94" fill="currentColor" stroke-width="0"/>
    <circle cx="396.12" cy="315.75" r="16.94" fill="currentColor" stroke-width="0"/>
  </g>
  <rect x="94" y="130" width="96" height="216" rx="24" ry="24" fill="currentColor" stroke-width="0"/>
  <rect x="130" y="346" width="24" height="72" fill="currentColor" stroke-width="0"/>
  <path d="M214,418h72v48c0,13.25-10.75,24-24,24h-24c-13.25,0-24-10.75-24-24v-48h0Z" fill="currentColor" stroke-width="0"/>
</svg>