<?xml version="1.0" encoding="UTF-8"?>
<svg id="Layer_3" data-name="Layer 3" xmlns="http://www.w3.org/2000/svg" viewBox="0 0 500 500">
  <path d="M58,442V171.38c0-11.23,3.94-22.1,11.13-30.73L163.61,27.27c9.12-10.94,22.63-17.27,36.87-17.27h193.52c26.51,0,48,21.49,48,48v384c0,26.51-21.49,48-48,48H106c-26.51,0-48-21.49-48-48Z" fill="currentColor" stroke-width="0"/>
  <rect x="154" y="179.85" width="192" height="284.31" rx="24.58" ry="24.58" transform="translate(572 72) rotate(90)" fill="currentColor" stroke-width="0"/>
  <g>
    <path d="M285.52,373.63h-71.04c-14.72,0-26.68-11.98-26.68-26.67v-47.37c0-14.72,11.96-26.7,26.68-26.7h71.04c14.72,0,26.68,11.98,26.68,26.7v47.37c0,14.7-11.96,26.67-26.68,26.67ZM214.48,278.9c-11.4,0-20.68,9.28-20.68,20.7v47.37c0,11.39,9.28,20.67,20.68,20.67h71.04c11.4,0,20.68-9.28,20.68-20.67v-47.37c0-11.41-9.28-20.7-20.68-20.7h-71.04Z" fill="currentColor" stroke-width="0"/>
    <path d="M392.09,397.33h-35.2c-14.88,0-27-12.12-27-27v-94.1c0-14.88,12.12-27,27-27h35.2v6h-35.2c-11.58,0-21,9.42-21,21v94.1c0,11.58,9.42,21,21,21h35.2v6Z" fill="currentColor" stroke-width="0"/>
    <rect x="309.29" y="320.2" width="82.79" height="6" fill="currentColor" stroke-width="0"/>
    <path d="M143.11,397.33h-35.2v-6h35.2c11.58,0,21-9.42,21-21v-94.1c0-11.58-9.42-21-21-21h-35.2v-6h35.2c14.88,0,27,12.12,27,27v94.1c0,14.88-12.12,27-27,27Z" fill="currentColor" stroke-width="0"/>
    <rect x="107.92" y="320.2" width="82.79" height="6" fill="currentColor" stroke-width="0"/>
    <rect x="247" y="226" width="6" height="49.9" fill="currentColor" stroke-width="0"/>
    <rect x="247" y="368.1" width="6" height="49.9" fill="currentColor" stroke-width="0"/>
  </g>
</svg>