<?xml version="1.0" encoding="UTF-8"?>
<svg id="Layer_3" data-name="Layer 3" xmlns="http://www.w3.org/2000/svg" viewBox="0 0 500 500">
  <path d="M387.4,326.79c-8.72,0-17.42-3.3-24.11-9.91-30.49-30.16-70.73-46.76-113.29-46.76s-82.8,16.61-113.29,46.76c-13.48,13.3-35.18,13.2-48.48-.27-13.31-13.46-13.19-35.17.27-48.48,43.42-42.94,100.77-66.58,161.51-66.58s118.09,23.65,161.51,66.58c13.46,13.31,13.58,35.02.27,48.48-6.71,6.79-15.54,10.18-24.38,10.18Z" fill="currentColor" stroke-width="0"/>
  <path d="M455.71,219.66c-8.77,0-17.54-3.35-24.24-10.04-48.59-48.58-113.04-75.35-181.47-75.35s-132.88,26.76-181.47,75.35c-13.39,13.39-35.09,13.39-48.48,0-13.39-13.38-13.39-35.1,0-48.48,61.54-61.54,143.2-95.44,229.96-95.44s168.42,33.9,229.96,95.44c13.39,13.38,13.39,35.1,0,48.48-6.7,6.7-15.47,10.04-24.24,10.04Z" fill="currentColor" stroke-width="0"/>
  <path d="M318.71,434.3c-8.77,0-17.54-3.35-24.24-10.04-23.26-23.26-65.67-23.26-88.91,0-13.39,13.39-35.1,13.38-48.49.01-13.39-13.38-13.39-35.09-.01-48.49,24.39-24.39,58.26-38.38,92.95-38.38s68.2,13.63,92.95,38.38c13.39,13.38,13.39,35.1,0,48.48-6.7,6.7-15.47,10.04-24.24,10.04Z" fill="currentColor" stroke-width="0"/>
</svg>