<?xml version="1.0" encoding="UTF-8"?>
<svg id="Layer_3" data-name="Layer 3" xmlns="http://www.w3.org/2000/svg" viewBox="0 0 500 500">
  <path d="M341.6,333.99c-9.95-9.95-26.08-9.95-36.03,0l-18.53,18.53c-8.16,8.16-15.95,16.81-22,26.64-11.07,17.99-44.54,49.9-121.59-27.16-77.06-77.06-45.14-110.52-27.16-121.59,9.83-6.05,18.48-13.84,26.64-22l18.53-18.53c9.95-9.95,9.95-26.08,0-36.03l-54.04-54.04c-9.95-9.95-26.08-9.95-36.03,0l-36.03,36.03s-84.15,132,54.04,270.19c138.19,138.19,270.19,54.04,270.19,54.04l36.03-36.03c9.95-9.95,9.95-26.08,0-36.03l-54.04-54.04Z" fill="currentColor" stroke-width="0"/>
  <path d="M376.33,249.18c-3.84-3.84-6.22-9.12-6.25-14.98-.15-26.7-10.55-51.72-29.29-70.46-18.74-18.74-43.76-29.14-70.46-29.29-11.79-.08-21.3-9.67-21.22-21.46.06-11.79,9.67-21.29,21.46-21.22,38.01.21,73.67,15.05,100.41,41.79,26.74,26.74,41.57,62.4,41.79,100.41.06,11.79-9.44,21.4-21.22,21.46-5.94.03-11.32-2.36-15.21-6.25Z" fill="currentColor" stroke-width="0"/>
  <path d="M453.56,232.09c-3.86-3.86-6.25-9.2-6.25-15.09,0-42.78-16.59-82.93-46.72-113.05-30.13-30.13-70.28-46.71-113.05-46.72-11.79,0-21.34-9.55-21.34-21.34,0-11.79,9.56-21.35,21.34-21.34,54.18,0,105.05,21.03,143.24,59.22,38.19,38.19,59.22,89.06,59.22,143.24,0,11.79-9.56,21.35-21.34,21.34-5.9,0-11.23-2.39-15.09-6.25Z" fill="currentColor" stroke-width="0"/>
  <path d="M298.76,266.27c-3.86-3.86-6.25-9.2-6.25-15.09,0-20.48-18.67-39.15-39.14-39.14-11.79,0-21.34-9.56-21.35-21.34,0-11.79,9.55-21.34,21.34-21.35,21.47,0,42.54,8.75,57.81,24.02,15.49,15.49,24.02,36.02,24.02,57.81,0,11.79-9.56,21.35-21.34,21.34-5.9,0-11.23-2.39-15.09-6.25Z" fill="currentColor" stroke-width="0"/>
</svg>