<?xml version="1.0" encoding="UTF-8"?>
<svg id="Layer_3" data-name="Layer 3" xmlns="http://www.w3.org/2000/svg" viewBox="0 0 500 500">
  <rect x="298" y="58" width="72" height="72" fill="currentColor" stroke-width="0"/>
  <rect x="94" y="106" width="312" height="384" rx="48" ry="48" fill="currentColor" stroke-width="0"/>
  <path d="M322,10h24c13.25,0,24,10.75,24,24v24h-72v-24c0-13.25,10.75-24,24-24Z" fill="currentColor" stroke-width="0"/>
  <rect x="142" y="154" width="216" height="72" rx="24" ry="24" fill="currentColor" stroke-width="0"/>
  <g>
    <path d="M187.6,298h-9.6c-6.63,0-12-5.37-12-12s5.37-12,12-12h9.6c6.63,0,12,5.37,12,12s-5.37,12-12,12Z" fill="currentColor" stroke-width="0"/>
    <path d="M254.8,298h-9.61c-6.63,0-12-5.37-12-12s5.37-12,12-12h9.61c6.63,0,12,5.37,12,12s-5.37,12-12,12Z" fill="currentColor" stroke-width="0"/>
    <path d="M322,298h-9.6c-6.63,0-12-5.37-12-12s5.37-12,12-12h9.6c6.63,0,12,5.37,12,12s-5.37,12-12,12Z" fill="currentColor" stroke-width="0"/>
  </g>
  <g>
    <path d="M187.6,370h-9.6c-6.63,0-12-5.37-12-12s5.37-12,12-12h9.6c6.63,0,12,5.37,12,12s-5.37,12-12,12Z" fill="currentColor" stroke-width="0"/>
    <path d="M254.8,370h-9.61c-6.63,0-12-5.37-12-12s5.37-12,12-12h9.61c6.63,0,12,5.37,12,12s-5.37,12-12,12Z" fill="currentColor" stroke-width="0"/>
    <path d="M322,370h-9.6c-6.63,0-12-5.37-12-12s5.37-12,12-12h9.6c6.63,0,12,5.37,12,12s-5.37,12-12,12Z" fill="currentColor" stroke-width="0"/>
  </g>
  <g>
    <path d="M187.6,442h-9.6c-6.63,0-12-5.37-12-12s5.37-12,12-12h9.6c6.63,0,12,5.37,12,12s-5.37,12-12,12Z" fill="currentColor" stroke-width="0"/>
    <path d="M254.8,442h-9.61c-6.63,0-12-5.37-12-12s5.37-12,12-12h9.61c6.63,0,12,5.37,12,12s-5.37,12-12,12Z" fill="currentColor" stroke-width="0"/>
    <path d="M322,442h-9.6c-6.63,0-12-5.37-12-12s5.37-12,12-12h9.6c6.63,0,12,5.37,12,12s-5.37,12-12,12Z" fill="currentColor" stroke-width="0"/>
  </g>
</svg>