<?xml version="1.0" encoding="UTF-8"?>
<svg id="Layer_3" data-name="Layer 3" xmlns="http://www.w3.org/2000/svg" viewBox="0 0 500 500">
  <path d="M116.67,476.62c14.73,0,26.67-11.94,26.67-26.67v-27.43c0-12.08-.64-24.25-3.44-36-5.12-21.51-3.97-69.9,110.11-69.9,114.07,0,115.23,48.4,110.11,69.9-2.8,11.75-3.44,23.92-3.44,36v27.43c0,14.73,11.94,26.67,26.67,26.67h80c14.73,0,26.67-11.94,26.67-26.67v-53.33s-35.42-160-240-160c-204.58,0-240,160-240,160v53.33c0,14.73,11.94,26.67,26.67,26.67h80Z" fill="currentColor" stroke-width="0"/>
  <path d="M250,219.65c-6.14,0-12.28-2.34-16.97-7.03l-118.63-118.62c-9.38-9.38-9.38-24.56,0-33.94,9.37-9.38,24.56-9.38,33.94,0l101.66,101.65L381.31,30.41c9.37-9.38,24.56-9.38,33.94,0s9.38,24.56,0,33.94l-148.28,148.27c-4.69,4.69-10.83,7.03-16.97,7.03Z" fill="currentColor" stroke-width="0"/>
  <path d="M101.72,190h0c-13.25,0-24-10.76-24-24V47.38c.01-13.27,10.76-24,24.01-24h118.61c13.25,0,24,10.73,24,24s-10.75,24-24,24h-94.61v94.62c-.01,13.27-10.76,24-24.01,24Z" fill="currentColor" stroke-width="0"/>
</svg>