<?xml version="1.0" encoding="UTF-8"?>
<svg id="Layer_3" data-name="Layer 3" xmlns="http://www.w3.org/2000/svg" viewBox="0 0 500 500">
  <path d="M396.03,315c-11.49-11.49-30.13-11.49-41.62,0l-21.4,21.4c-9.43,9.43-18.43,19.42-25.41,30.78-12.79,20.78-51.46,57.65-140.48-31.37-89.03-89.03-52.16-127.7-31.37-140.48,11.36-6.99,21.35-15.98,30.78-25.41l21.4-21.4c11.49-11.49,11.49-30.13,0-41.62l-62.43-62.43c-11.49-11.49-30.13-11.49-41.62,0l-41.62,41.62s-97.23,152.51,62.43,312.17c159.66,159.66,312.17,62.43,312.17,62.43l41.62-41.62c11.49-11.49,11.49-30.13,0-41.62l-62.43-62.43Z" fill="currentColor" stroke-width="0"/>
  <path d="M463.37,58.66c0-6.39-2.44-12.77-7.31-17.64-9.75-9.75-25.54-9.75-35.29,0l-167.62,167.61c-9.75,9.75-9.75,25.54,0,35.29,9.75,9.75,25.54,9.75,35.29,0l167.62-167.61c4.87-4.87,7.31-11.26,7.31-17.64Z" fill="currentColor" stroke-width="0"/>
  <path d="M487.08,34.95c0-6.56-2.58-12.92-7.31-17.64-5.9-5.9-14.35-8.46-22.54-6.82l-118.84,23.76c-13.5,2.69-22.26,15.79-19.57,29.37,2.71,13.51,15.84,22.27,29.37,19.57l82.13-16.41-16.43,82.12c-2.67,13.61,6.06,26.66,19.57,29.37,13.51,2.71,26.66-6.06,29.37-19.57l23.77-118.83c.33-1.63.49-3.27.49-4.9Z" fill="currentColor" stroke-width="0"/>
</svg>