<?xml version="1.0" encoding="UTF-8"?>
<svg id="Layer_3" data-name="Layer 3" xmlns="http://www.w3.org/2000/svg" viewBox="0 0 500 500">
  <path d="M396.03,315c-11.49-11.49-30.13-11.49-41.62,0l-21.4,21.4c-9.43,9.43-18.43,19.42-25.41,30.78-12.79,20.78-51.46,57.65-140.48-31.37-89.03-89.03-52.16-127.69-31.37-140.48,11.36-6.99,21.35-15.98,30.78-25.41l21.4-21.4c11.49-11.49,11.49-30.13,0-41.62l-62.43-62.43c-11.49-11.49-30.13-11.49-41.62,0l-41.62,41.62s-97.23,152.51,62.43,312.17c159.66,159.66,312.17,62.43,312.17,62.43l41.62-41.62c11.49-11.49,11.49-30.13,0-41.62l-62.43-62.43Z" fill="currentColor" stroke-width="0"/>
  <path d="M294.51,227.53c-6.39,0-12.77-2.44-17.64-7.31-9.75-9.75-9.75-25.54,0-35.29L444.48,17.31c9.75-9.75,25.54-9.75,35.29,0,9.75,9.75,9.75,25.54,0,35.29l-167.61,167.62c-4.87,4.87-11.26,7.31-17.64,7.31Z" fill="currentColor" stroke-width="0"/>
  <path d="M270.8,251.24c-6.56,0-12.92-2.58-17.64-7.31-5.9-5.9-8.46-14.35-6.82-22.54l23.76-118.84c2.69-13.5,15.79-22.26,29.37-19.57,13.51,2.71,22.27,15.84,19.57,29.37l-16.41,82.13,82.12-16.43c13.61-2.67,26.66,6.06,29.37,19.57,2.71,13.51-6.06,26.66-19.57,29.37l-118.83,23.77c-1.63.33-3.27.49-4.9.49Z" fill="currentColor" stroke-width="0"/>
</svg>