<?xml version="1.0" encoding="utf-8"?>
<!-- Generator: Adobe Illustrator 28.5.0, SVG Export Plug-In . SVG Version: 9.03 Build 54727)  -->
<svg version="1.0" id="Layer_1" xmlns="http://www.w3.org/2000/svg" xmlns:xlink="http://www.w3.org/1999/xlink" x="0px" y="0px"
	 viewBox="0 0 64 64" style="enable-background:new 0 0 64 64;" xml:space="preserve">
<style type="text/css">
	.st0{fill:none;stroke:currentColor;stroke-width:2;stroke-linecap:round;stroke-linejoin:round;stroke-miterlimit:10;}
</style>
<g>
	<path class="st0" d="M34,22h17.6c1.9,0,3.4,1.5,3.4,3.4v25.9H9.1V25.3c0-1.9,1.5-3.4,3.4-3.4h17.6"/>
	<path class="st0" d="M57.1,60H6.9c-1.6,0-3-1.3-3-3v-5.9h56.1v5.9C60.1,58.7,58.7,60,57.1,60z"/>
	<path class="st0" d="M36.9,18.4L32,24.3l-4.9-5.9l-12.5,0c-2.1,0-3.7-1.7-3.7-3.7V7.6c0-2.1,1.7-3.7,3.7-3.7h34.8
		c2.1,0,3.7,1.7,3.7,3.7v7.1c0,2.1-1.7,3.7-3.7,3.7L36.9,18.4z"/>
	<line class="st0" x1="32" y1="6.7" x2="32" y2="15.3"/>
	<line class="st0" x1="24" y1="8" x2="24" y2="13.9"/>
	<line class="st0" x1="28" y1="8.3" x2="28" y2="13.6"/>
	<line class="st0" x1="19.9" y1="9.5" x2="19.9" y2="12.5"/>
	<line class="st0" x1="40" y1="8" x2="40" y2="13.9"/>
	<line class="st0" x1="36" y1="8.3" x2="36" y2="13.6"/>
	<line class="st0" x1="44.1" y1="9.5" x2="44.1" y2="12.5"/>
	<path class="st0" d="M32,38.7L32,38.7c-1.9,0-3.5-1.5-3.5-3.5v-3.9c0-1.9,1.5-3.5,3.5-3.5h0c1.9,0,3.5,1.5,3.5,3.5v3.9
		C35.5,37.2,33.9,38.7,32,38.7z"/>
	<path class="st0" d="M38.9,34v1.5c0,3.8-3.1,6.9-6.9,6.9h0c-3.8,0-6.9-3.1-6.9-6.9V34"/>
	<line class="st0" x1="32" y1="42.3" x2="32" y2="46"/>
	<line class="st0" x1="29.6" y1="46" x2="34.4" y2="46"/>
	<path class="st0" d="M34.8,55.6h-5.5c-1.2,0-2.3-1-2.3-2.3v-2.2h10v2.2C37,54.6,36,55.6,34.8,55.6z"/>
</g>
</svg>
