<?xml version="1.0" encoding="utf-8"?>
<!-- Generator: Adobe Illustrator 28.5.0, SVG Export Plug-In . SVG Version: 9.03 Build 54727)  -->
<svg version="1.0" id="Layer_1" xmlns="http://www.w3.org/2000/svg" xmlns:xlink="http://www.w3.org/1999/xlink" x="0px" y="0px"
	 viewBox="0 0 64 64" style="enable-background:new 0 0 64 64;" xml:space="preserve">
<style type="text/css">
	.st0{fill:none;stroke:currentColor;stroke-width:2;stroke-linecap:round;stroke-linejoin:round;stroke-miterlimit:10;}
</style>
<g>
	<path class="st0" d="M32,44.2L32,44.2c-5.9,0-10.7-4.8-10.7-10.7V21.6c0-5.9,4.8-10.7,10.7-10.7h0c5.9,0,10.7,4.8,10.7,10.7v11.9
		C42.7,39.4,37.9,44.2,32,44.2z"/>
	<path class="st0" d="M47.6,30.3v3.5c0,8.6-7,15.6-15.6,15.6h0c-8.6,0-15.6-7-15.6-15.6v-3.5"/>
	<line class="st0" x1="32" y1="49.4" x2="32" y2="57.8"/>
	<line class="st0" x1="26.6" y1="57.8" x2="37.4" y2="57.8"/>
	<line class="st0" x1="21.3" y1="33.5" x2="42.7" y2="33.5"/>
	<line class="st0" x1="33.1" y1="38.3" x2="30.9" y2="38.3"/>
	<line class="st0" x1="51.7" y1="17.4" x2="51.7" y2="37.7"/>
	<line class="st0" x1="60.7" y1="20.8" x2="60.7" y2="34.2"/>
	<line class="st0" x1="56.2" y1="23.7" x2="56.2" y2="31.4"/>
	<line class="st0" x1="12.3" y1="17.4" x2="12.3" y2="37.7"/>
	<line class="st0" x1="3.3" y1="20.8" x2="3.3" y2="34.2"/>
	<line class="st0" x1="7.8" y1="23.7" x2="7.8" y2="31.4"/>
</g>
</svg>
