<?xml version="1.0" encoding="utf-8"?>
<!-- Generator: Adobe Illustrator 28.5.0, SVG Export Plug-In . SVG Version: 9.03 Build 54727)  -->
<svg version="1.0" id="Layer_1" xmlns="http://www.w3.org/2000/svg" xmlns:xlink="http://www.w3.org/1999/xlink" x="0px" y="0px"
	 viewBox="0 0 64 64" style="enable-background:new 0 0 64 64;" xml:space="preserve">
<style type="text/css">
	.st0{fill:none;stroke:currentColor;stroke-width:2;stroke-linecap:round;stroke-linejoin:round;stroke-miterlimit:10;}
</style>
<g>
	<path class="st0" d="M36.8,42.1v12.1c0,2-1.7,3.7-3.7,3.7H6.7c-2,0-3.7-1.7-3.7-3.7V9.8c0-2,1.7-3.7,3.7-3.7h26.4
		c2,0,3.7,1.7,3.7,3.7v8"/>
	<line class="st0" x1="16.4" y1="12.5" x2="23.5" y2="12.5"/>
	<line class="st0" x1="3" y1="48.5" x2="36.8" y2="48.5"/>
	<circle class="st0" cx="36.8" cy="30" r="12.1"/>
	<path class="st0" d="M36.8,31.4L36.8,31.4c-1.7,0-3.1-1.4-3.1-3.1v-3.5c0-1.7,1.4-3.1,3.1-3.1h0c1.7,0,3.1,1.4,3.1,3.1v3.5
		C39.9,30,38.5,31.4,36.8,31.4z"/>
	<path class="st0" d="M43,27.1v1.4c0,3.4-2.7,6.1-6.1,6.1h0c-3.4,0-6.1-2.7-6.1-6.1v-1.4"/>
	<line class="st0" x1="36.8" y1="34.7" x2="36.8" y2="38"/>
	<line class="st0" x1="34.7" y1="38" x2="39" y2="38"/>
	<line class="st0" x1="16.9" y1="25.4" x2="16.9" y2="34.9"/>
	<line class="st0" x1="21.1" y1="25.8" x2="21.1" y2="34.4"/>
	<line class="st0" x1="12.8" y1="27.7" x2="12.8" y2="32.5"/>
	<line class="st0" x1="56.9" y1="25.4" x2="56.9" y2="34.9"/>
	<line class="st0" x1="52.7" y1="25.8" x2="52.7" y2="34.4"/>
	<line class="st0" x1="61" y1="27.7" x2="61" y2="32.5"/>
</g>
</svg>
