<?xml version="1.0" encoding="utf-8"?>
<!-- Generator: Adobe Illustrator 28.5.0, SVG Export Plug-In . SVG Version: 9.03 Build 54727)  -->
<svg version="1.0" id="Layer_1" xmlns="http://www.w3.org/2000/svg" xmlns:xlink="http://www.w3.org/1999/xlink" x="0px" y="0px"
	 viewBox="0 0 64 64" style="enable-background:new 0 0 64 64;" xml:space="preserve">
<style type="text/css">
	.st0{fill:none;stroke:currentColor;stroke-width:2;stroke-linecap:round;stroke-linejoin:round;stroke-miterlimit:10;}
</style>
<g>
	<g>
		<path class="st0" d="M34.5,50.9c0,0,3.9,4.6,1.7,9.8"/>
	</g>
	<path class="st0" d="M43.9,44.1c-1.6,5.4-4.5,6.3-4.5,6.3l-10.9,1.3c-2.3,0.3-4.5-1.3-5-3.6l0-0.2c-0.3-1.2,0-2.5,0.8-3.5h0
		c0.4-0.5,0-1.3-0.6-1.3h0c-1.2,0.1-2.2-0.9-2.1-2.2l0.1-1.4l-3.1-0.1c-1.1,0-1.8-1.1-1.4-2.1l3-7.6c-1.1-3.3-1.3-7-0.5-10.7
		C21.9,9,31.6,2.6,41.9,3.4c10.2,0.8,16.7,6.5,18.6,18.2c2.5,15.4-9.9,21.7-6,39.1"/>
	<path class="st0" d="M19.6,51.4c-3.2-1.3-4.7-5-3.3-8.2"/>
	<path class="st0" d="M17.4,55.9c-5.5-2.3-8.1-8.7-5.8-14.3"/>
	<path class="st0" d="M15.9,60.9C7.5,57.3,3.5,47.5,7.1,39"/>
</g>
</svg>
