<?xml version="1.0" encoding="utf-8"?>
<!-- Generator: Adobe Illustrator 28.5.0, SVG Export Plug-In . SVG Version: 9.03 Build 54727)  -->
<svg version="1.0" id="Layer_1" xmlns="http://www.w3.org/2000/svg" xmlns:xlink="http://www.w3.org/1999/xlink" x="0px" y="0px"
	 viewBox="0 0 64 64" style="enable-background:new 0 0 64 64;" xml:space="preserve">
<style type="text/css">
	.st0{fill:none;stroke:currentColor;stroke-width:2;stroke-linecap:round;stroke-linejoin:round;stroke-miterlimit:10;}
</style>
<g>
	<circle class="st0" cx="16.9" cy="16.9" r="14.3"/>
	<circle class="st0" cx="47.1" cy="47.1" r="14.3"/>
	<path class="st0" d="M16.9,19.1L16.9,19.1c-2.2,0-4-1.8-4-4v-4.4c0-2.2,1.8-4,4-4h0c2.2,0,4,1.8,4,4v4.4
		C20.9,17.3,19.1,19.1,16.9,19.1z"/>
	<path class="st0" d="M24.2,13.6v1.6c0,4-3.2,7.3-7.3,7.3h0c-4,0-7.3-3.2-7.3-7.3v-1.6"/>
	<line class="st0" x1="16.9" y1="22.4" x2="16.9" y2="26.3"/>
	<line class="st0" x1="14.4" y1="26.3" x2="19.4" y2="26.3"/>
	<line class="st0" x1="47.1" y1="41.1" x2="47.1" y2="54.6"/>
	<polyline class="st0" points="53.8,44.7 53.8,41.1 40,41.1 40,44.7 	"/>
	<path class="st0" d="M34,15.4h10.3c1.6,0,2.9,1.3,2.9,2.9v11.8"/>
	<polyline class="st0" points="51.2,25.4 47.1,30.1 43,25.4 	"/>
	<path class="st0" d="M30.2,48.5H20c-1.6,0-2.9-1.3-2.9-2.9V33.8"/>
	<polyline class="st0" points="13,38.6 17.1,33.8 21.2,38.6 	"/>
</g>
</svg>
