<?xml version="1.0" encoding="utf-8"?>
<!-- Generator: Adobe Illustrator 28.5.0, SVG Export Plug-In . SVG Version: 9.03 Build 54727)  -->
<svg version="1.0" id="Layer_1" xmlns="http://www.w3.org/2000/svg" xmlns:xlink="http://www.w3.org/1999/xlink" x="0px" y="0px"
	 viewBox="0 0 64 64" style="enable-background:new 0 0 64 64;" xml:space="preserve">
<style type="text/css">
	.st0{fill:none;stroke:currentColor;stroke-width:2;stroke-linecap:round;stroke-linejoin:round;stroke-miterlimit:10;}
</style>
<g>
	<path class="st0" d="M34.5,42.1l15.6,13.6V42.1l5.7,0c2.8,0,5.2-2.3,5.2-5.1V13.4c0-2.8-2.3-5.1-5.1-5.1H8.1C5.3,8.2,3,10.5,3,13.4
		V37c0,2.8,2.3,5.1,5.2,5.1L34.5,42.1z"/>
	<line class="st0" x1="32" y1="14.2" x2="32" y2="35.8"/>
	<line class="st0" x1="17.9" y1="17.6" x2="17.9" y2="32.4"/>
	<line class="st0" x1="25" y1="18.3" x2="25" y2="31.7"/>
	<line class="st0" x1="10.8" y1="21.3" x2="10.8" y2="28.7"/>
	<line class="st0" x1="46.1" y1="17.6" x2="46.1" y2="32.4"/>
	<line class="st0" x1="39" y1="18.3" x2="39" y2="31.7"/>
	<line class="st0" x1="53.2" y1="21.3" x2="53.2" y2="28.7"/>
</g>
</svg>
