<?xml version="1.0" encoding="utf-8"?>
<!-- Generator: Adobe Illustrator 28.5.0, SVG Export Plug-In . SVG Version: 9.03 Build 54727)  -->
<svg version="1.0" id="Layer_1" xmlns="http://www.w3.org/2000/svg" xmlns:xlink="http://www.w3.org/1999/xlink" x="0px" y="0px"
	 viewBox="0 0 64 64" style="enable-background:new 0 0 64 64;" xml:space="preserve">
<style type="text/css">
	.st0{fill:none;stroke:currentColor;stroke-width:2;stroke-linecap:round;stroke-linejoin:round;stroke-miterlimit:10;}
</style>
<g>
	<path class="st0" d="M59.2,1.8c-4.9,2.2-8.7,6.4-10,11.9c-0.7,3.2-0.5,6.4,0.4,9.2l-2.5,6.5c-0.3,0.8,0.3,1.8,1.2,1.8l2.7,0.1
		l-0.1,1.2c-0.1,1,0.7,1.9,1.7,1.9c0,0,0.1,0,0.1,0c0.4,0,0.7,0.3,0.7,0.7c0,0.1-0.1,0.3-0.2,0.4c-0.7,0.8-0.9,2-0.7,3l0,0.1
		c0.4,2,2.3,3.3,4.3,3.1l2.4-0.3"/>
	<path class="st0" d="M49.2,41.5c-2.7-1.2-4-4.3-2.9-7"/>
	<path class="st0" d="M47.3,45.4c-4.8-2-7-7.5-5-12.3"/>
	<path class="st0" d="M46,49.7c-7.3-3.1-10.7-11.5-7.6-18.7"/>
	<path class="st0" d="M32.1,58.9c0,1.8-1.5,3.3-3.3,3.3H8c-1.8,0-3.3-1.5-3.3-3.3V19.6c0-1.8,1.5-3.3,3.3-3.3h20.8
		c1.8,0,3.3,1.5,3.3,3.3V58.9z"/>
	<line class="st0" x1="4.8" y1="53.8" x2="32.1" y2="53.8"/>
	<path class="st0" d="M22.6,22.2h-8.4c-1.2,0-2.1-1-2.1-2.1v-3.7h12.7v3.7C24.8,21.3,23.8,22.2,22.6,22.2z"/>
	<path class="st0" d="M18.4,40.5L18.4,40.5c-1.9,0-3.4-1.5-3.4-3.4v-3.8c0-1.9,1.5-3.4,3.4-3.4h0c1.9,0,3.4,1.5,3.4,3.4v3.8
		C21.8,39,20.3,40.5,18.4,40.5z"/>
	<path class="st0" d="M25.4,35.6v1.6c0,3.9-3.1,7-7,7h0c-3.9,0-7-3.1-7-7v-1.6"/>
	<line class="st0" x1="18.4" y1="44.1" x2="18.4" y2="47.9"/>
	<line class="st0" x1="16" y1="47.9" x2="20.8" y2="47.9"/>
</g>
</svg>
