<?xml version="1.0" encoding="utf-8"?>
<!-- Generator: Adobe Illustrator 28.5.0, SVG Export Plug-In . SVG Version: 9.03 Build 54727)  -->
<svg version="1.0" id="Layer_1" xmlns="http://www.w3.org/2000/svg" xmlns:xlink="http://www.w3.org/1999/xlink" x="0px" y="0px"
	 viewBox="0 0 64 64" style="enable-background:new 0 0 64 64;" xml:space="preserve">
<style type="text/css">
	.st0{fill:none;stroke:currentColor;stroke-width:2;stroke-linecap:round;stroke-linejoin:round;stroke-miterlimit:10;}
</style>
<g>
	<path class="st0" d="M29.9,61H6.9c-2.2,0-4-1.8-4-4V23.9c0-2.2,1.8-4,4-4h22.9c2.2,0,4,1.8,4,4V57C33.9,59.2,32.1,61,29.9,61z"/>
	<path class="st0" d="M61.1,3c-4.9,2.2-8.7,6.4-10,11.9c-0.7,3.2-0.5,6.4,0.4,9.2L49,30.7c-0.3,0.8,0.3,1.8,1.2,1.8l2.7,0.1
		l-0.1,1.2c-0.1,1,0.7,1.9,1.7,1.9c0,0,0.1,0,0.1,0c0.4,0,0.7,0.3,0.7,0.7c0,0.1-0.1,0.3-0.2,0.4c-0.7,0.8-0.9,2-0.7,3l0,0.1
		c0.4,2,2.3,3.3,4.3,3.1l2.4-0.3"/>
	<path class="st0" d="M51,42.7c-2.7-1.2-4-4.3-2.9-7"/>
	<path class="st0" d="M49.1,46.6c-4.8-2-7-7.5-5-12.3"/>
	<path class="st0" d="M47.9,50.8c-7.3-3.1-10.7-11.5-7.6-18.7"/>
	<line class="st0" x1="2.9" y1="34.9" x2="33.9" y2="34.9"/>
	<circle class="st0" cx="18.4" cy="27.9" r="3"/>
	<line class="st0" x1="18.4" y1="40.9" x2="18.4" y2="54.8"/>
	<line class="st0" x1="8.9" y1="44.1" x2="8.9" y2="51.6"/>
	<line class="st0" x1="27.9" y1="44.1" x2="27.9" y2="51.6"/>
	<line class="st0" x1="13.8" y1="42.7" x2="13.8" y2="52.9"/>
	<line class="st0" x1="23" y1="42.7" x2="23" y2="52.9"/>
</g>
</svg>
