<?xml version="1.0" encoding="utf-8"?>
<!-- Generator: Adobe Illustrator 28.5.0, SVG Export Plug-In . SVG Version: 9.03 Build 54727)  -->
<svg version="1.0" id="Layer_1" xmlns="http://www.w3.org/2000/svg" xmlns:xlink="http://www.w3.org/1999/xlink" x="0px" y="0px"
	 viewBox="0 0 64 64" style="enable-background:new 0 0 64 64;" xml:space="preserve">
<style type="text/css">
	.st0{fill:none;stroke:currentColor;stroke-width:2;stroke-linecap:round;stroke-linejoin:round;stroke-miterlimit:10;}
</style>
<g>
	<path class="st0" d="M58,57.5H6c-1.9,0-3.4-1.5-3.4-3.4V9.8C2.7,8,4.2,6.5,6,6.5H58c1.9,0,3.4,1.5,3.4,3.4v44.3
		C61.3,56,59.8,57.5,58,57.5z"/>
	<line class="st0" x1="2.7" y1="15" x2="61.3" y2="15"/>
	<line class="st0" x1="45.9" y1="10.8" x2="49" y2="10.8"/>
	<line class="st0" x1="53.2" y1="10.8" x2="56.3" y2="10.8"/>
	<path class="st0" d="M48.4,53H15.6c-1.2,0-2.3-1-2.3-2.3v-7c0-1.2,1-2.3,2.3-2.3h32.8c1.2,0,2.3,1,2.3,2.3v7
		C50.6,52,49.6,53,48.4,53z"/>
	<path class="st0" d="M31.6,30L31.6,30c-1.9,0-3.5-1.6-3.5-3.5v-3.9c0-1.9,1.6-3.5,3.5-3.5h0c1.9,0,3.5,1.6,3.5,3.5v3.9
		C35.2,28.4,33.6,30,31.6,30z"/>
	<path class="st0" d="M38.6,25.1v1.6c0,3.9-3.1,7-7,7h0c-3.9,0-7-3.1-7-7v-1.6"/>
	<line class="st0" x1="31.6" y1="33.7" x2="31.6" y2="37.5"/>
	<line class="st0" x1="29.2" y1="37.5" x2="34.1" y2="37.5"/>
	<line class="st0" x1="31.6" y1="44.5" x2="31.6" y2="49.9"/>
	<line class="st0" x1="23.1" y1="45.4" x2="23.1" y2="49.1"/>
	<line class="st0" x1="27.4" y1="45.5" x2="27.4" y2="48.9"/>
	<line class="st0" x1="18.8" y1="46.3" x2="18.8" y2="48.2"/>
	<line class="st0" x1="40.2" y1="45.4" x2="40.2" y2="49.1"/>
	<line class="st0" x1="35.9" y1="45.5" x2="35.9" y2="48.9"/>
	<line class="st0" x1="44.5" y1="46.3" x2="44.5" y2="48.2"/>
</g>
</svg>
