<?xml version="1.0" encoding="utf-8"?>
<!-- Generator: Adobe Illustrator 28.5.0, SVG Export Plug-In . SVG Version: 9.03 Build 54727)  -->
<svg version="1.0" id="Layer_1" xmlns="http://www.w3.org/2000/svg" xmlns:xlink="http://www.w3.org/1999/xlink" x="0px" y="0px"
	 viewBox="0 0 64 64" style="enable-background:new 0 0 64 64;" xml:space="preserve">
<style type="text/css">
	.st0{fill:none;stroke:currentColor;stroke-width:2;stroke-linecap:round;stroke-linejoin:round;stroke-miterlimit:10;}
</style>
<g>
	<path class="st0" d="M45.5,49.4H18.5c-2.1,0-3.9-1.7-3.9-3.9V18.5c0-2.1,1.7-3.9,3.9-3.9h27.1c2.1,0,3.9,1.7,3.9,3.9v27.1
		C49.4,47.7,47.7,49.4,45.5,49.4z"/>
	<path class="st0" d="M42.7,14.6H21.3v-4c0-1,0.8-1.9,1.9-1.9h17.6c1,0,1.9,0.8,1.9,1.9V14.6z"/>
	<line class="st0" x1="32" y1="8.7" x2="32" y2="4.2"/>
	<line class="st0" x1="28.2" y1="8.7" x2="28.2" y2="4.2"/>
	<line class="st0" x1="35.8" y1="8.7" x2="35.8" y2="4.2"/>
	<line class="st0" x1="24.4" y1="8.7" x2="24.4" y2="4.2"/>
	<line class="st0" x1="39.6" y1="8.7" x2="39.6" y2="4.2"/>
	<path class="st0" d="M21.3,49.4h21.4v4c0,1-0.8,1.9-1.9,1.9H23.2c-1,0-1.9-0.8-1.9-1.9V49.4z"/>
	<line class="st0" x1="32" y1="55.3" x2="32" y2="59.8"/>
	<line class="st0" x1="35.8" y1="55.3" x2="35.8" y2="59.8"/>
	<line class="st0" x1="28.2" y1="55.3" x2="28.2" y2="59.8"/>
	<line class="st0" x1="39.6" y1="55.3" x2="39.6" y2="59.8"/>
	<line class="st0" x1="24.4" y1="55.3" x2="24.4" y2="59.8"/>
	<path class="st0" d="M49.4,42.7V21.3h4c1,0,1.9,0.8,1.9,1.9v17.6c0,1-0.8,1.9-1.9,1.9H49.4z"/>
	<line class="st0" x1="55.3" y1="32" x2="59.8" y2="32"/>
	<line class="st0" x1="55.3" y1="28.2" x2="59.8" y2="28.2"/>
	<line class="st0" x1="55.3" y1="35.8" x2="59.8" y2="35.8"/>
	<line class="st0" x1="55.3" y1="24.4" x2="59.8" y2="24.4"/>
	<line class="st0" x1="55.3" y1="39.6" x2="59.8" y2="39.6"/>
	<path class="st0" d="M14.6,21.3v21.4h-4c-1,0-1.9-0.8-1.9-1.9V23.2c0-1,0.8-1.9,1.9-1.9H14.6z"/>
	<line class="st0" x1="8.7" y1="32" x2="4.2" y2="32"/>
	<line class="st0" x1="8.7" y1="35.8" x2="4.2" y2="35.8"/>
	<line class="st0" x1="8.7" y1="28.2" x2="4.2" y2="28.2"/>
	<line class="st0" x1="8.7" y1="39.6" x2="4.2" y2="39.6"/>
	<line class="st0" x1="8.7" y1="24.4" x2="4.2" y2="24.4"/>
</g>
<rect x="19.4" y="19.4" class="st0" width="25.2" height="25.2"/>
<line class="st0" x1="32" y1="25.5" x2="32" y2="38.9"/>
<line class="st0" x1="23.3" y1="29.8" x2="23.3" y2="34.7"/>
<line class="st0" x1="27.7" y1="28.1" x2="27.7" y2="36.4"/>
<line class="st0" x1="40.8" y1="29.8" x2="40.8" y2="34.7"/>
<line class="st0" x1="36.3" y1="28.1" x2="36.3" y2="36.4"/>
</svg>
