<?xml version="1.0" encoding="utf-8"?>
<!-- Generator: Adobe Illustrator 28.5.0, SVG Export Plug-In . SVG Version: 9.03 Build 54727)  -->
<svg version="1.0" id="Layer_1" xmlns="http://www.w3.org/2000/svg" xmlns:xlink="http://www.w3.org/1999/xlink" x="0px" y="0px"
	 viewBox="0 0 64 64" style="enable-background:new 0 0 64 64;" xml:space="preserve">
<style type="text/css">
	.st0{fill:none;stroke:currentColor;stroke-width:2;stroke-linecap:round;stroke-linejoin:round;stroke-miterlimit:10;}
</style>
<g>
	<path class="st0" d="M22,24h-2.5c-1.8,0-3.4,1-4.1,2.7L9.7,39.4h44.5l-2.3-5.2l-2.9-6.4l-0.5-1.1c-0.7-1.6-2.3-2.7-4.1-2.7H42"/>
	<rect x="9.7" y="39.4" class="st0" width="44.5" height="13.5"/>
	<path class="st0" d="M17.1,61h-4.5c-1.6,0-2.9-1.3-2.9-2.9V53H20v5.1C20,59.7,18.7,61,17.1,61z"/>
	<path class="st0" d="M51.3,61h-4.5c-1.6,0-2.9-1.3-2.9-2.9V53h10.3v5.1C54.2,59.7,52.9,61,51.3,61z"/>
	<path class="st0" d="M12.1,34.3h-0.8c-1.8,0-3.2-1.4-3.2-3.2c0-0.9,0.4-1.7,0.9-2.3s1.4-0.9,2.3-0.9h3.6"/>
	<path class="st0" d="M49.1,27.8h3.6c1.8,0,3.2,1.4,3.2,3.2c0,0.9-0.4,1.7-0.9,2.3c-0.6,0.6-1.4,0.9-2.3,0.9h-0.8"/>
	<path class="st0" d="M18.1,48.5h-2.7c-0.7,0-1.3-0.6-1.3-1.3v-1.9c0-0.7,0.6-1.3,1.3-1.3h2.7c0.7,0,1.3,0.6,1.3,1.3v1.9
		C19.4,47.9,18.8,48.5,18.1,48.5z"/>
	<path class="st0" d="M48.7,48.5h-2.7c-0.7,0-1.3-0.6-1.3-1.3v-1.9c0-0.7,0.6-1.3,1.3-1.3h2.7c0.7,0,1.3,0.6,1.3,1.3v1.9
		C50,47.9,49.4,48.5,48.7,48.5z"/>
	<line class="st0" x1="24.6" y1="46.2" x2="39.4" y2="46.2"/>
	<circle class="st0" cx="32" cy="14" r="11"/>
	<path class="st0" d="M32,15.7L32,15.7c-1.7,0-3.1-1.4-3.1-3.1V9.2c0-1.7,1.4-3.1,3.1-3.1h0c1.7,0,3.1,1.4,3.1,3.1v3.4
		C35.1,14.3,33.7,15.7,32,15.7z"/>
	<path class="st0" d="M38.1,11.3v1.3c0,3.3-2.7,6.1-6.1,6.1h0c-3.3,0-6.1-2.7-6.1-6.1v-1.3"/>
	<line class="st0" x1="32" y1="18.7" x2="32" y2="22"/>
	<line class="st0" x1="29.9" y1="22" x2="34.1" y2="22"/>
	<line class="st0" x1="51.4" y1="8.1" x2="51.4" y2="19.8"/>
	<line class="st0" x1="47.3" y1="9.7" x2="47.3" y2="18.3"/>
	<line class="st0" x1="55.6" y1="11.6" x2="55.6" y2="16.4"/>
	<line class="st0" x1="12.7" y1="8.1" x2="12.7" y2="19.8"/>
	<line class="st0" x1="16.9" y1="9.7" x2="16.9" y2="18.3"/>
	<line class="st0" x1="8.6" y1="11.6" x2="8.6" y2="16.4"/>
</g>
</svg>
