<?xml version="1.0" encoding="utf-8"?>
<!-- Generator: Adobe Illustrator 28.5.0, SVG Export Plug-In . SVG Version: 9.03 Build 54727)  -->
<svg version="1.0" id="Layer_1" xmlns="http://www.w3.org/2000/svg" xmlns:xlink="http://www.w3.org/1999/xlink" x="0px" y="0px"
	 viewBox="0 0 64 64" style="enable-background:new 0 0 64 64;" xml:space="preserve">
<style type="text/css">
	.st0{fill:none;stroke:currentColor;stroke-width:2;stroke-linecap:round;stroke-linejoin:round;stroke-miterlimit:10;}
</style>
<g>
	<path class="st0" d="M33.2,20.6c8.6,0.1,15.3,1.7,15.3,3.6c0,2-7.4,3.6-16.6,3.6c-9.1,0-16.6-1.6-16.6-3.6c0-1.9,6.8-3.5,15.3-3.6"
		/>
	<path class="st0" d="M48.6,44.9c0,2-7.4,3.6-16.6,3.6s-16.6-1.6-16.6-3.6"/>
	<path class="st0" d="M48.6,24.3v33.2l0,0c0,2-7.4,3.6-16.6,3.6c-9.1,0-16.6-1.6-16.6-3.6l0,0l0-33.2"/>
	<line class="st0" x1="20.9" y1="51.5" x2="20.9" y2="56.4"/>
	<line class="st0" x1="32" y1="52.8" x2="32" y2="57.6"/>
	<line class="st0" x1="26.4" y1="52.4" x2="26.4" y2="57.3"/>
	<line class="st0" x1="43.1" y1="51.5" x2="43.1" y2="56.4"/>
	<line class="st0" x1="37.6" y1="52.4" x2="37.6" y2="57.3"/>
	<path class="st0" d="M36.6,16.6L32,22.2l-4.6-5.6l-11.8,0c-1.9,0-3.5-1.6-3.5-3.5V6.4c0-1.9,1.6-3.5,3.5-3.5h32.8
		c1.9,0,3.5,1.6,3.5,3.5v6.6c0,1.9-1.6,3.5-3.5,3.5L36.6,16.6z"/>
	<line class="st0" x1="32" y1="5.6" x2="32" y2="13.6"/>
	<line class="st0" x1="24.5" y1="6.8" x2="24.5" y2="12.4"/>
	<line class="st0" x1="28.3" y1="7.1" x2="28.3" y2="12.1"/>
	<line class="st0" x1="20.6" y1="8.2" x2="20.6" y2="11"/>
	<line class="st0" x1="39.5" y1="6.8" x2="39.5" y2="12.4"/>
	<line class="st0" x1="35.7" y1="7.1" x2="35.7" y2="12.1"/>
	<line class="st0" x1="43.4" y1="8.2" x2="43.4" y2="11"/>
	<path class="st0" d="M35.1,34.9c1.1,0.9,1.8,2.2,1.8,3.7c0,2.7-2.2,4.8-4.9,4.8s-4.9-2.2-4.9-4.8c0-1.5,0.7-2.9,1.8-3.7"/>
	<line class="st0" x1="32" y1="32.5" x2="32" y2="38.4"/>
</g>
</svg>
