<?xml version="1.0" encoding="utf-8"?>
<!-- Generator: Adobe Illustrator 28.5.0, SVG Export Plug-In . SVG Version: 9.03 Build 54727)  -->
<svg version="1.0" id="Layer_1" xmlns="http://www.w3.org/2000/svg" xmlns:xlink="http://www.w3.org/1999/xlink" x="0px" y="0px"
	 viewBox="0 0 64 64" style="enable-background:new 0 0 64 64;" xml:space="preserve">
<style type="text/css">
	.st0{fill:none;stroke:currentColor;stroke-width:2;stroke-linecap:round;stroke-linejoin:round;stroke-miterlimit:10;}
</style>
<g>
	<path class="st0" d="M48.9,61.1H15.1c-2.1,0-3.9-1.7-3.9-3.9V26.6c0-2.1,1.7-3.9,3.9-3.9h33.9c2.1,0,3.9,1.7,3.9,3.9v30.6
		C52.8,59.4,51.1,61.1,48.9,61.1z"/>
	<path class="st0" d="M47,22.9H17V10.6c0-4.3,3.5-7.7,7.7-7.7h14.5c4.3,0,7.7,3.5,7.7,7.7V22.9z"/>
	<path class="st0" d="M41.5,22.9h-19V11.4c0-1.7,1.4-3.1,3.1-3.1h12.7c1.7,0,3.1,1.4,3.1,3.1V22.9z"/>
	<line class="st0" x1="32" y1="33.2" x2="32" y2="50.7"/>
	<line class="st0" x1="17.7" y1="38.7" x2="17.7" y2="45.2"/>
	<line class="st0" x1="24.9" y1="36.5" x2="24.9" y2="47.4"/>
	<line class="st0" x1="46.3" y1="38.7" x2="46.3" y2="45.2"/>
	<line class="st0" x1="39.1" y1="36.5" x2="39.1" y2="47.4"/>
</g>
</svg>
