<?xml version="1.0" encoding="utf-8"?>
<!-- Generator: Adobe Illustrator 28.5.0, SVG Export Plug-In . SVG Version: 9.03 Build 54727)  -->
<svg version="1.0" id="Layer_1" xmlns="http://www.w3.org/2000/svg" xmlns:xlink="http://www.w3.org/1999/xlink" x="0px" y="0px"
	 viewBox="0 0 64 64" style="enable-background:new 0 0 64 64;" xml:space="preserve">
<style type="text/css">
	.st0{fill:none;stroke:currentColor;stroke-width:2;stroke-linecap:round;stroke-linejoin:round;stroke-miterlimit:10;}
</style>
<g>
	<polyline class="st0" points="4.6,16.7 4.6,7.2 14.2,7.2 	"/>
	<polyline class="st0" points="59.4,16.7 59.4,7.2 49.8,7.2 	"/>
	<polyline class="st0" points="59.4,47.3 59.4,56.8 49.8,56.8 	"/>
	<polyline class="st0" points="4.6,47.3 4.6,56.8 14.2,56.8 	"/>
	<line class="st0" x1="9.4" y1="25.8" x2="9.4" y2="40.7"/>
	<line class="st0" x1="32" y1="15.4" x2="32" y2="51.1"/>
	<line class="st0" x1="20.7" y1="22.2" x2="20.7" y2="44.4"/>
	<line class="st0" x1="26.4" y1="24.3" x2="26.4" y2="42.2"/>
	<line class="st0" x1="15.1" y1="28.3" x2="15.1" y2="38.2"/>
	<line class="st0" x1="54.6" y1="25.8" x2="54.6" y2="40.7"/>
	<line class="st0" x1="43.3" y1="22.2" x2="43.3" y2="44.4"/>
	<line class="st0" x1="37.6" y1="24.3" x2="37.6" y2="42.2"/>
	<line class="st0" x1="48.9" y1="28.3" x2="48.9" y2="38.2"/>
</g>
</svg>
